<svg xmlns="http://www.w3.org/2000/svg" xmlns:xlink="http://www.w3.org/1999/xlink">
  <defs/>
  <g>
    <path stroke="none" fill="#000000" d="M739.05 10.1 L739.05 38.1 Q739.05 38.95 738.45 39.55 737.85 40.1 737.05 40.1 L729.05 40.1 Q728.2 40.1 727.6 39.55 727.05 38.95 727.05 38.1 L727.05 10.15 Q727.05 9.3 727.6 8.7 728.2 8.1 729.05 8.1 L737.05 8.1 Q737.85 8.1 738.45 8.7 739.05 9.3 739.05 10.1 M733.5 66 L733.9 65.5 Q735.3 64.1 737.2 64.1 739.15 64.1 740.55 65.5 741.9 66.9 741.9 68.85 741.9 70.75 740.55 72.15 742.1 72.8 743.4 74.15 745.95 76.75 745.95 80.4 L745.95 80.45 Q745.95 82.4 743.4 83.7 741.7 84.65 739.55 84.95 L739.55 84.8 739.55 84.75 Q739.55 78.85 735.4 74.7 L735.4 74.65 733.35 72.95 733.65 72.25 733.85 72.15 733.7 72.05 Q734.1 70.75 734.1 69.4 734.1 67.55 733.5 66 M730.9 74.2 Q732.45 75.05 733.75 76.35 737.2 79.85 737.2 84.75 L737.2 84.8 737.2 85.1 Q737 87.5 733.75 89.2 730.35 91 725.5 91 720.65 91 717.2 89.2 714 87.5 713.8 85.1 L713.8 84.8 713.8 84.75 Q713.8 79.85 717.2 76.35 718.55 75.05 720.05 74.2 L721 73.75 Q719.25 71.95 719.25 69.4 719.25 66.75 721.1 64.9 722.9 63 725.5 63 728.1 63 729.95 64.9 731.75 66.75 731.75 69.4 731.75 71.95 730 73.75 L730.9 74.2 M722.45 8.7 Q723.05 9.3 723.05 10.1 L723.05 38.1 Q723.05 38.95 722.45 39.55 721.85 40.1 721.05 40.1 L713.05 40.1 Q712.2 40.1 711.6 39.55 711.05 38.95 711.05 38.1 L711.05 10.15 Q711.05 9.3 711.6 8.7 712.2 8.1 713.05 8.1 L721.05 8.1 Q721.85 8.1 722.45 8.7 M691 10 L691 38 Q691 38.85 690.4 39.45 689.8 40 689 40 L685 40 Q684.15 40 683.55 39.45 683 38.85 683 38 L683 10.05 Q683 9.2 683.55 8.6 684.15 8 685 8 L689 8 Q689.8 8 690.4 8.6 691 9.2 691 10 M671.55 8.6 Q672.15 8 673 8 L677 8 Q677.8 8 678.4 8.6 679 9.2 679 10 L679 38 Q679 38.85 678.4 39.45 677.8 40 677 40 L673 40 Q672.15 40 671.55 39.45 671 38.85 671 38 L671 10.05 Q671 9.2 671.55 8.6 M659.55 8.6 Q660.15 8 661 8 L665 8 Q665.8 8 666.4 8.6 667 9.2 667 10 L667 38 Q667 38.85 666.4 39.45 665.8 40 665 40 L661 40 Q660.15 40 659.55 39.45 659 38.85 659 38 L659 10.05 Q659 9.2 659.55 8.6 M677.5 69.45 Q677.5 67.15 679.1 65.6 680.7 64 682.9 64 685.15 64 686.75 65.6 688.3 67.15 688.3 69.45 688.3 71.65 686.75 73.2 688.55 73.95 690.05 75.45 693 78.4 693 82.65 693 84.9 690.05 86.45 687.1 88 682.9 88 L677.75 87.3 Q680.4 85.35 680.2 82.65 680.2 77.85 677 74.35 677.95 73.65 679.05 73.2 677.5 71.65 677.5 69.45 M671.95 73.2 Q673.75 73.95 675.25 75.45 L675.5 75.7 Q678.2 78.6 678.2 82.65 678.2 84.8 675.5 86.3 L675.25 86.45 Q672.3 88 668.1 88 663.9 88 660.95 86.45 658.05 84.9 658 82.65 658 78.4 660.95 75.45 662.45 73.95 664.2 73.2 662.7 71.65 662.7 69.45 662.7 67.15 664.3 65.6 665.85 64 668.1 64 670.35 64 671.95 65.6 673.5 67.15 673.5 69.45 673.5 71.65 671.95 73.2 M717.55 66 Q716.9 67.55 716.9 69.4 716.9 70.75 717.3 72 L717.15 72.15 717.4 72.3 717.65 72.95 Q716.55 73.7 715.6 74.65 L715.6 74.7 Q711.45 78.85 711.45 84.75 L711.45 84.95 Q709.3 84.65 707.6 83.7 705.05 82.4 705 80.45 L705 80.4 Q705 76.75 707.6 74.15 708.85 72.8 710.45 72.15 709.1 70.75 709.1 68.85 709.1 66.9 710.45 65.5 711.85 64.1 713.8 64.1 715.75 64.1 717.15 65.5 L717.55 66 M726 115.7 Q721.85 115.7 718.9 118.6 715.95 121.55 715.95 125.7 715.95 129.9 718.9 132.8 721.85 135.75 726 135.75 730.15 135.75 733.1 132.8 L733.15 132.8 Q736.05 129.9 736.05 125.7 736.05 121.55 733.15 118.6 730.15 115.7 726 115.7 M726 120.05 Q728.35 120.05 730 121.7 731.65 123.35 731.65 125.7 731.65 128.05 730 129.7 728.35 131.4 726 131.4 723.6 131.4 721.95 129.7 720.35 128.05 720.35 125.7 720.35 123.35 721.95 121.7 723.6 120.05 726 120.05 M714.7 114.35 Q719.4 109.7 726 109.7 732.6 109.7 737.3 114.4 742 119.1 742 125.7 742 132.35 737.3 137.05 732.6 141.7 726 141.7 719.4 141.7 714.7 137.05 710 132.35 710 125.7 710 119.1 714.65 114.4 L714.7 114.4 714.7 114.35 M690.8 119.8 Q692 122.65 692 126 692 126.5 691.65 126.85 691.3 127.2 690.8 127.2 L687.5 127.2 687.1 129.25 690.2 130.55 690.85 131.2 Q691.05 131.65 690.85 132.1 689.7 134.95 687.3 137.35 L686.5 137.65 685.65 137.35 683.3 135 681.55 136.2 682.85 139.25 Q683.05 139.7 682.85 140.15 L682.2 140.8 Q679.35 142 676 142 675.5 142 675.15 141.65 674.8 141.3 674.8 140.8 L674.8 137.5 672.75 137.15 671.5 140.2 670.85 140.85 Q670.4 141.05 669.95 140.85 667.05 139.7 664.7 137.35 664.35 137 664.35 136.5 664.35 136 664.7 135.65 L667.05 133.3 665.85 131.55 662.75 132.85 Q662.3 133.05 661.85 132.85 L661.2 132.2 Q660 129.35 660 126 660 125.5 660.35 125.15 660.7 124.8 661.2 124.8 L664.5 124.8 664.9 122.75 661.8 121.5 661.15 120.85 Q660.95 120.4 661.15 119.95 662.3 117.05 664.7 114.7 665.05 114.35 665.5 114.35 666 114.35 666.35 114.7 L668.7 117.05 Q669.55 116.35 670.45 115.85 L669.15 112.75 Q668.95 112.3 669.15 111.85 669.35 111.4 669.8 111.2 672.65 110 676 110 676.5 110 676.85 110.35 677.2 110.7 677.2 111.2 L677.2 114.5 679.25 114.9 680.55 111.8 Q680.7 111.35 681.15 111.15 681.6 110.95 682.1 111.15 683.95 111.9 685.65 113.2 L687.3 114.7 Q687.65 115.05 687.65 115.55 L687.3 116.35 685 118.7 686.15 120.45 689.25 119.15 Q689.7 118.95 690.15 119.15 L690.8 119.8 M676 118.25 Q672.8 118.25 670.5 120.5 668.25 122.8 668.25 126 668.25 129.2 670.5 131.5 672.8 133.75 676 133.75 679.2 133.75 681.5 131.5 683.75 129.2 683.75 126 683.75 122.8 681.5 120.5 679.2 118.25 676 118.25 M676 122.15 Q677.6 122.15 678.75 123.25 679.9 124.4 679.9 126 679.9 127.6 678.75 128.75 677.6 129.9 676 129.9 674.4 129.9 673.25 128.75 672.15 127.6 672.15 126 672.15 124.4 673.25 123.25 674.4 122.15 676 122.15 M679 172 L679 180 671 180 671 172 667 172 667 168 675 160 683 168 683 172 679 172 M665 176 Q665.8 176 666.4 176.6 667 177.2 667 178 L667 184 683 184 683 178.05 Q683 177.2 683.55 176.6 684.15 176 685 176 L689 176 Q689.8 176 690.4 176.6 691 177.2 691 178 L691 190 Q691 190.85 690.4 191.45 689.8 192 689 192 L661 192 Q660.15 192 659.55 191.45 659 190.85 659 190 L659 178.05 Q659 177.2 659.55 176.6 660.15 176 661 176 L665 176 M722.5 167.55 Q721.05 166.05 721.05 164 721.05 161.95 722.5 160.5 724 159 726.05 159 728.15 159 729.6 160.5 L729.55 160.5 Q731.05 162 731.05 164 731.05 166.15 729.55 167.6 L729.55 167.55 Q728.1 169 726.05 169 723.95 169 722.5 167.55 M728.05 171 Q729.25 171 730.15 171.9 731.05 172.8 731.05 174 L731.05 187 732.05 187 Q733.25 187 734.15 187.9 735.05 188.8 735.05 190 L735.05 192 734.75 192.7 734.05 193 718.05 193 Q717.65 193 717.35 192.7 717.05 192.4 717.05 192 L717.05 190.05 Q717.05 188.8 717.9 187.95 L717.9 187.9 Q718.8 187 720.05 187 L721.05 187 721.05 177 718.05 177 Q717.65 177 717.35 176.7 717.05 176.4 717.05 176 L717.05 172 Q717.05 171.6 717.35 171.3 717.65 171 718.05 171 L728.05 171 M732.7 222.3 L733 223 733 231 732.7 231.7 Q732.4 232 732 232 L725 232 725 237 724.7 237.7 724 238 720 238 719.3 237.7 709.3 227.7 Q709 227.4 709 227 709 226.6 709.3 226.3 L719.3 216.3 Q719.6 216 720 216 L724 216 Q724.4 216 724.7 216.3 L725 217 725 222 732 222 Q732.4 222 732.7 222.3 M732 272 Q732 269.5 730.25 267.75 728.5 266 726 266 723.45 266 721.7 267.75 720 269.5 720 272 720 274.45 721.7 276.2 723.45 278 726 278 728.5 278 730.25 276.2 732 274.45 732 272 M739.45 213.6 Q740 214.2 740 215.05 L740 239 Q740 239.85 739.45 240.45 738.85 241 738 241 L728 241 728 237 736 237 736 217 728 217 728 213 738 213 Q738.85 213 739.45 213.6 M738 271.95 Q738 275.95 735.7 279.05 L735.75 279.1 740.8 287.9 740.95 288.55 740.45 289.1 739.8 289.25 735.1 288 733.85 292.7 733.35 293.2 732.7 293.3 732.15 292.9 727.1 284.1 727.05 283.95 726 284 724.9 283.95 724.8 284.1 719.75 292.9 719.2 293.3 718.55 293.2 718.05 292.7 716.8 288 712.1 289.25 711.45 289.1 710.95 288.55 Q710.9 288.2 711.1 287.9 L716.15 279.1 716.25 279 Q714 275.95 714 271.95 714 266.95 717.4 263.45 720.9 260 726 260 731 260 734.5 263.45 738 266.95 738 271.95 M693 227 L692.7 227.7 682.7 237.7 682 238 678 238 677.3 237.7 677 237 677 232 670 232 Q669.6 232 669.3 231.7 669 231.4 669 231 L669 223 Q669 222.6 669.3 222.3 669.6 222 670 222 L677 222 677 217 Q677 216.6 677.3 216.3 677.6 216 678 216 L682 216 Q682.4 216 682.7 216.3 L692.7 226.3 693 227 M674 217 L666 217 666 237 674 237 674 241 664 241 Q663.15 241 662.55 240.45 662 239.85 662 239 L662 215.05 Q662 214.2 662.55 213.6 663.15 213 664 213 L674 213 674 217 M688 271.95 Q688 276.9 684.5 280.4 682.9 282.05 681 282.95 L681 293.05 680.75 293.7 680.1 293.95 679.45 293.75 676 290.3 672.55 293.75 671.9 293.95 671.25 293.7 671 293.05 671 283 Q669.05 282.05 667.4 280.4 664 276.9 664 271.95 664 266.95 667.4 263.45 670.9 260 676 260 681 260 684.5 263.45 688 266.95 688 271.95 M676 266 Q673.45 266 671.7 267.75 670 269.5 670 272 670 274.45 671.7 276.2 673.45 278 676 278 678.5 278 680.25 276.2 682 274.45 682 272 682 269.5 680.25 267.75 678.5 266 676 266 M706 314 L745 314 Q745.8 314 746.4 314.6 747 315.2 747 316 L747 336 Q747 336.85 746.4 337.45 745.8 338 745 338 L706 338 Q705.15 338 704.55 337.45 704 336.85 704 336 L704 316.05 Q704 315.2 704.55 314.6 705.15 314 706 314 M696.4 314.6 Q697 315.2 697 316 L697 336 Q697 336.85 696.4 337.45 L695.95 337.8 695 338 656 338 Q655.15 338 654.55 337.45 654 336.85 654 336 L654 316.05 Q654 315.2 654.55 314.6 655.15 314 656 314 L695 314 695.95 314.25 696.4 314.6 M735.25 327.75 L734.45 326.9 Q733.9 327.65 732.95 327.65 732.3 327.65 731.8 327.2 731.35 326.7 731.35 325.9 731.35 325.15 731.85 324.7 732.35 324.2 733.05 324.2 733.9 324.2 734.5 324.95 L735.3 324.1 Q734.35 323.05 733 323.05 731.75 323.05 730.9 323.85 730.05 324.7 730.05 325.95 730.05 327.2 730.9 328 731.7 328.8 733 328.8 734.3 328.8 735.25 327.75 M740.2 324.25 L740.2 323.15 735.75 323.15 735.75 324.25 737.35 324.25 737.35 328.75 738.6 328.75 738.6 324.25 740.2 324.25 M675.35 326.45 L673.95 326.45 674.65 324.8 675.35 326.45 M675.25 323.15 L674.05 323.15 671.6 328.75 672.95 328.75 673.45 327.55 675.8 327.55 676.3 328.75 677.65 328.75 675.25 323.15 M679.55 326.95 L680.4 326.95 681.65 328.75 683.15 328.75 681.75 326.75 Q682.8 326.35 682.8 325 682.8 324.05 682.25 323.6 681.7 323.15 680.4 323.15 L678.3 323.15 678.3 328.75 679.55 328.75 679.55 326.95 M679.55 324.25 L680.45 324.25 681.3 324.4 681.55 325 681.3 325.7 680.45 325.9 679.55 325.9 679.55 324.25 M686.45 324.25 L688.05 324.25 688.05 323.15 683.6 323.15 683.6 324.25 685.2 324.25 685.2 328.75 686.45 328.75 686.45 324.25 M663.5 324.65 L663.7 324.25 664.2 324.15 Q664.95 324.15 665.7 324.7 L666.35 323.75 665.35 323.2 664.25 323.05 Q663.35 323.05 662.8 323.45 662.25 323.9 662.25 324.7 662.25 325.5 662.7 325.85 663.15 326.25 664.1 326.45 L664.95 326.75 665.15 327.15 664.95 327.55 664.4 327.7 Q663.65 327.7 662.75 326.9 L662 327.85 Q663.05 328.8 664.4 328.8 L665.85 328.35 Q666.45 327.9 666.45 327.15 666.45 326.4 666 326 L664.75 325.4 663.75 325.05 663.5 324.65 M667 323.15 L667 324.25 668.6 324.25 668.6 328.75 669.85 328.75 669.85 324.25 671.45 324.25 671.45 323.15 667 323.15 M714.3 327.15 Q714.3 326.4 713.85 326 713.4 325.6 712.6 325.4 L711.6 325.05 711.35 324.65 711.55 324.25 712.05 324.15 Q712.8 324.15 713.55 324.7 L714.2 323.75 Q713.75 323.4 713.2 323.2 L712.1 323.05 Q711.2 323.05 710.65 323.45 710.1 323.9 710.1 324.7 710.1 325.5 710.55 325.85 711 326.25 711.95 326.45 L712.8 326.75 713 327.15 712.8 327.55 712.25 327.7 Q711.5 327.7 710.6 326.9 L709.85 327.85 Q710.9 328.8 712.25 328.8 713.15 328.8 713.7 328.35 714.3 327.9 714.3 327.15 M721.85 327.65 L721.85 323.15 720.6 323.15 720.6 328.75 724.2 328.75 724.2 327.65 721.85 327.65 M719.35 324.25 L719.35 323.15 715.35 323.15 715.35 328.75 719.45 328.75 719.45 327.65 716.6 327.65 716.6 326.5 719.1 326.5 719.1 325.4 716.6 325.4 716.6 324.25 719.35 324.25 M726.4 327.65 L726.4 326.5 728.9 326.5 728.9 325.4 726.4 325.4 726.4 324.25 729.15 324.25 729.15 323.15 725.15 323.15 725.15 328.75 729.25 328.75 729.25 327.65 726.4 327.65 M645 14 Q645 14.85 644.4 15.45 643.8 16 643 16 L611 16 Q610.15 16 609.55 15.45 609 14.85 609 14 L609 10.05 Q609 9.2 609.55 8.6 610.15 8 611 8 L643 8 Q643.8 8 644.4 8.6 645 9.2 645 10 L645 14 M644.4 20.6 Q645 21.2 645 22 L645 26 Q645 26.85 644.4 27.45 643.8 28 643 28 L611 28 Q610.15 28 609.55 27.45 609 26.85 609 26 L609 22.05 Q609 21.2 609.55 20.6 610.15 20 611 20 L643 20 Q643.8 20 644.4 20.6 M609.55 39.45 Q609 38.85 609 38 L609 34.05 Q609 33.2 609.55 32.6 610.15 32 611 32 L643 32 Q643.8 32 644.4 32.6 645 33.2 645 34 L645 38 Q645 38.85 644.4 39.45 643.8 40 643 40 L611 40 Q610.15 40 609.55 39.45 M590.4 20.6 Q591 21.2 591 22 L591 26 Q591 26.85 590.4 27.45 589.8 28 589 28 L573 28 Q572.15 28 571.55 27.45 571 26.85 571 26 L571 22.05 Q571 21.2 571.55 20.6 572.15 20 573 20 L589 20 Q589.8 20 590.4 20.6 M591 14 Q591 14.85 590.4 15.45 589.8 16 589 16 L573 16 Q572.15 16 571.55 15.45 571 14.85 571 14 L571 10.05 Q571 9.2 571.55 8.6 572.15 8 573 8 L589 8 Q589.8 8 590.4 8.6 591 9.2 591 10 L591 14 M567 14 Q567 14.85 566.4 15.45 565.8 16 565 16 L561 16 Q560.15 16 559.55 15.45 559 14.85 559 14 L559 10.05 Q559 9.2 559.55 8.6 560.15 8 561 8 L565 8 Q565.8 8 566.4 8.6 567 9.2 567 10 L567 14 M567 38 Q567 38.85 566.4 39.45 565.8 40 565 40 L561 40 Q560.15 40 559.55 39.45 559 38.85 559 38 L559 34.05 Q559 33.2 559.55 32.6 560.15 32 561 32 L565 32 Q565.8 32 566.4 32.6 567 33.2 567 34 L567 38 M571.55 39.45 Q571 38.85 571 38 L571 34.05 Q571 33.2 571.55 32.6 572.15 32 573 32 L589 32 Q589.8 32 590.4 32.6 591 33.2 591 34 L591 38 Q591 38.85 590.4 39.45 589.8 40 589 40 L573 40 Q572.15 40 571.55 39.45 M567 26 Q567 26.85 566.4 27.45 565.8 28 565 28 L561 28 Q560.15 28 559.55 27.45 559 26.85 559 26 L559 22.05 Q559 21.2 559.55 20.6 560.15 20 561 20 L565 20 Q565.8 20 566.4 20.6 567 21.2 567 22 L567 26 M580.5 63.5 Q584 67 584 72.05 584 73.9 583.55 75.55 L584.85 76.9 585.15 77.2 585.5 77.55 590.4 82.45 Q592 84.15 592.05 86.4 L592.05 86.65 Q592 88.9 590.4 90.45 589.05 91.85 587.25 92.1 L586.45 92.15 585.7 92.1 Q583.9 91.85 582.45 90.5 L579.95 88 579.95 87.95 575.7 83.65 576.1 84.1 575.55 83.55 572 84 Q567 84 563.45 80.5 560 77 560 72.05 560 67.05 563.45 63.5 567.05 60 572 60 577.05 60 580.5 63.5 M579.9 71.9 Q579.85 68.65 577.6 66.4 L577.6 66.35 Q575.3 64.1 572 64.1 568.7 64.1 566.35 66.35 L566.3 66.4 Q564.05 68.7 564.05 72.05 564.05 75.3 566.35 77.6 568.65 79.85 571.9 79.9 L572 79.9 Q575.3 79.9 577.55 77.6 L577.6 77.6 Q579.9 75.3 579.9 72.05 L579.9 71.9 M630.35 72.25 Q632.85 73.3 634.9 75.25 639 79.2 639 84.85 639 87.85 634.9 89.9 630.85 92 625 92 619.2 92 615.1 89.9 611.05 87.85 611 84.85 611 79.2 615.1 75.25 617.15 73.3 619.65 72.25 617.55 70.15 617.55 67.25 617.55 64.25 619.75 62.15 621.9 60 625 60 628.15 60 630.3 62.15 632.5 64.25 632.5 67.25 632.5 70.15 630.35 72.25 M541 10 L541 14 Q541 14.85 540.4 15.45 539.8 16 539 16 L535 16 Q534.15 16 533.55 15.45 533 14.85 533 14 L533 10.05 Q533 9.2 533.55 8.6 534.15 8 535 8 L539 8 Q539.8 8 540.4 8.6 541 9.2 541 10 M529 10 L529 14 Q529 14.85 528.4 15.45 527.8 16 527 16 L523 16 Q522.15 16 521.55 15.45 521 14.85 521 14 L521 10.05 Q521 9.2 521.55 8.6 522.15 8 523 8 L527 8 Q527.8 8 528.4 8.6 529 9.2 529 10 M535 20 L539 20 Q539.8 20 540.4 20.6 541 21.2 541 22 L541 26 Q541 26.85 540.4 27.45 539.8 28 539 28 L535 28 Q534.15 28 533.55 27.45 533 26.85 533 26 L533 22.05 Q533 21.2 533.55 20.6 534.15 20 535 20 M528.4 20.6 Q529 21.2 529 22 L529 26 Q529 26.85 528.4 27.45 527.8 28 527 28 L523 28 Q522.15 28 521.55 27.45 521 26.85 521 26 L521 22.05 Q521 21.2 521.55 20.6 522.15 20 523 20 L527 20 Q527.8 20 528.4 20.6 M541 34 L541 38 Q541 38.85 540.4 39.45 539.8 40 539 40 L535 40 Q534.15 40 533.55 39.45 533 38.85 533 38 L533 34.05 Q533 33.2 533.55 32.6 534.15 32 535 32 L539 32 Q539.8 32 540.4 32.6 541 33.2 541 34 M528.4 32.6 Q529 33.2 529 34 L529 38 Q529 38.85 528.4 39.45 527.8 40 527 40 L523 40 Q522.15 40 521.55 39.45 521 38.85 521 38 L521 34.05 Q521 33.2 521.55 32.6 522.15 32 523 32 L527 32 Q527.8 32 528.4 32.6 M517 10 L517 14 Q517 14.85 516.4 15.45 515.8 16 515 16 L511 16 Q510.15 16 509.55 15.45 509 14.85 509 14 L509 10.05 Q509 9.2 509.55 8.6 510.15 8 511 8 L515 8 Q515.8 8 516.4 8.6 517 9.2 517 10 M515 20 Q515.8 20 516.4 20.6 517 21.2 517 22 L517 26 Q517 26.85 516.4 27.45 515.8 28 515 28 L511 28 Q510.15 28 509.55 27.45 509 26.85 509 26 L509 22.05 Q509 21.2 509.55 20.6 510.15 20 511 20 L515 20 M490.05 24.1 L489.75 24.8 477.75 36.8 477.05 37.1 Q476.65 37.1 476.35 36.8 476.05 36.5 476.05 36.1 L476.05 12.1 Q476.05 11.7 476.35 11.4 476.65 11.1 477.05 11.1 477.45 11.1 477.75 11.4 L489.75 23.4 490.05 24.1 M517 34 L517 38 Q517 38.85 516.4 39.45 515.8 40 515 40 L511 40 Q510.15 40 509.55 39.45 509 38.85 509 38 L509 34.05 Q509 33.2 509.55 32.6 510.15 32 511 32 L515 32 Q515.8 32 516.4 32.6 517 33.2 517 34 M516.35 66.35 L516.3 66.4 Q514.05 68.7 514.05 72.05 514.05 75.3 516.35 77.6 518.65 79.85 521.9 79.9 L522 79.9 Q525.3 79.9 527.55 77.6 L527.6 77.6 Q529.9 75.3 529.9 72.05 L529.9 71.9 Q529.85 68.65 527.6 66.4 L527.6 66.35 Q525.3 64.1 522 64.1 518.7 64.1 516.35 66.35 M510 72.05 Q510 67.05 513.45 63.5 517.05 60 522 60 527.05 60 530.5 63.5 534 67 534 72.05 534 73.9 533.55 75.55 L534.85 76.9 535.15 77.2 535.5 77.55 540.4 82.45 Q542 84.15 542.05 86.4 L542.05 86.65 Q542 88.9 540.4 90.45 539.05 91.85 537.25 92.1 L536.45 92.15 535.7 92.1 Q533.9 91.85 532.45 90.5 L529.95 88 529.95 87.95 525.7 83.65 526.1 84.1 525.55 83.55 522 84 Q517 84 513.45 80.5 510 77 510 72.05 M526.05 73.1 L526.05 76.1 518.05 76.1 518.05 73.1 526.05 73.1 M518.05 69.1 L526.05 69.1 526.05 72.1 518.05 72.1 518.05 69.1 M486.45 92.15 L485.7 92.1 Q483.9 91.85 482.45 90.5 L475.7 83.65 476.1 84.1 475.55 83.55 472 84 Q467 84 463.45 80.5 460 77 460 72.05 460 67.05 463.45 63.5 467.05 60 472 60 477.05 60 480.5 63.5 484 67 484 72.05 484 73.9 483.55 75.55 L484.85 76.9 485.15 77.2 485.5 77.55 490.4 82.45 Q492 84.15 492.05 86.4 L492.05 86.65 Q492 88.9 490.4 90.45 489.05 91.85 487.25 92.1 L486.45 92.15 M533 118 Q533 119.7 531.8 120.85 530.65 122 529 122 L529 130 539 130 Q539.8 130 540.4 130.6 541 131.2 541 132 L541 142 509 142 509 132.05 Q509 131.2 509.55 130.6 510.15 130 511 130 L521 130 521 122 Q519.3 122 518.15 120.85 517 119.65 517 118 L517 114 Q517 112.35 518.15 111.2 519.35 110 521 110 L529 110 Q530.65 110 531.8 111.2 533 112.4 533 114 L533 118 M537 134 L533 134 533 138 537 138 537 134 M565.1 140 L564.65 129.9 559 121.45 568.6 117.9 575.05 110 581.4 117.9 591 121.45 585.35 129.9 584.8 140 575.05 137.35 565.1 140 M491 120 L491 130 Q491 131.7 489.8 132.85 488.65 134 487 134 L479 134 479 138 485 138 Q485.8 138 486.4 138.6 487 139.2 487 140 L487 142 463 142 463 140.05 Q463 139.2 463.55 138.6 464.15 138 465 138 L471 138 471 134 463 134 Q461.3 134 460.15 132.85 459 131.65 459 130 L459 120.05 Q459 119.2 459.55 118.6 460.15 118 461 118 L465 118 465 114 485 114 485 118 489 118 Q489.8 118 490.4 118.6 491 119.2 491 120 M487 122 L485 122 485 130 487 130 487 122 M523.95 169.3 L523.55 169.6 Q523 170.2 523 171.05 L523 180 Q523 180.85 523.55 181.45 L523.95 181.75 524.95 182 526 182 Q526.8 182 527.4 181.45 528 180.85 528 180 L528 171 Q528 170.2 527.4 169.6 526.8 169 526 169 L524.95 169 Q524.4 169 523.95 169.3 M524.55 161.25 Q525.5 160.8 526.5 161.25 L526.55 161.25 Q527.4 161.6 527.85 162.55 L541.6 187.25 Q542.05 188.2 542 189.25 L542 189.3 Q541.85 190.45 541.1 191.15 L541.15 191.15 Q540.35 192 539.25 192 L511.75 192 Q510.6 192 509.85 191.1 509.15 190.35 509 189.3 508.85 188.25 509.35 187.25 L509.4 187.25 523.15 162.55 523.15 162.5 Q523.65 161.6 524.5 161.25 L524.55 161.25 M525.5 184 Q524.45 184 523.7 184.75 523 185.45 523 186.5 523 187.5 523.7 188.25 524.45 189 525.5 189 526.55 189 527.25 188.25 L527.25 188.3 Q528 187.55 528 186.5 528 185.5 527.25 184.75 L527.3 184.75 Q526.6 184 525.5 184 M565 160 L569.95 160 569.95 164 567 164 567 188 569.95 188 569.95 192 565 192 Q564.15 192 563.55 191.45 563 190.85 563 190 L563 162.05 Q563 161.2 563.55 160.6 564.15 160 565 160 M628 113.15 Q630.75 115.65 631.2 119.3 L631.2 119.4 631.2 119.45 631.2 120.9 631.1 122.05 640.05 130.9 Q641.75 132.4 641.95 134.6 L642 135.5 Q642 138.3 640.1 140.15 L640.05 140.2 Q638.3 142 635.35 142 632.7 142 630.7 140.2 L630.7 140.15 624.75 134.25 624.6 133.85 621.65 131.05 619 130.9 619.1 130.95 Q615.6 130.4 613.15 128.05 L613.15 128 Q609.6 124.3 610.05 119.8 610.1 118.35 610.65 116.9 610.75 116.6 611 116.45 L611.5 116.35 611.9 116.6 617.6 122.3 618.7 122.9 619.7 122.35 619.7 122.3 622.1 119.8 Q622.85 119.1 622.5 118.3 L622.05 117.6 616.35 112.15 616.15 111.75 Q616.05 111.45 616.2 111.25 616.3 111 616.55 110.9 617.2 110.55 617.8 110.35 L617.85 110.35 622.6 110.2 Q625.7 110.75 628.05 113.15 L628 113.15 M637.15 134.1 Q635.55 132.75 633.9 134.1 L633.9 134.15 633.45 135 633.4 135.1 633.3 135.7 Q633.3 136.55 633.9 137.3 634.65 137.9 635.55 137.9 636.5 137.9 637.15 137.3 637.9 136.55 637.9 135.7 L637.8 135.05 637.2 134.15 637.15 134.1 M578.4 177.45 Q579 176.85 579 176 579 175.2 578.4 174.6 L578.45 174.6 Q577.85 174 577 174 576.2 174 575.6 174.6 575 175.2 575 176 575 176.85 575.6 177.45 576.15 178 577 178 577.85 178 578.4 177.45 M572.55 163.45 Q573.15 162.75 573.95 162.6 L588 159.9 588 189.9 573.95 192.6 Q573.15 192.75 572.55 192.3 572 191.8 572 190.95 L572 165 Q572 164.15 572.55 163.45 M633 168 L633 172 625 180 617 172 617 168 621 168 621 160 629 160 629 168 633 168 M617 178 L617 184 633 184 633 178.05 Q633 177.2 633.55 176.6 634.15 176 635 176 L639 176 Q639.8 176 640.4 176.6 641 177.2 641 178 L641 190 Q641 190.85 640.4 191.45 639.8 192 639 192 L611 192 Q610.15 192 609.55 191.45 609 190.85 609 190 L609 178.05 Q609 177.2 609.55 176.6 610.15 176 611 176 L615 176 Q615.8 176 616.4 176.6 617 177.2 617 178 M473.05 11.1 Q473.45 11.1 473.75 11.4 L474.05 12.1 474.05 36.1 473.75 36.8 473.05 37.1 Q472.65 37.1 472.35 36.8 L460.35 24.8 Q460.05 24.5 460.05 24.1 460.05 23.7 460.35 23.4 L472.35 11.4 Q472.65 11.1 473.05 11.1 M437.75 21.4 L438.05 22.1 437.75 22.8 437.05 23.1 413.05 23.1 412.35 22.8 Q412.05 22.5 412.05 22.1 412.05 21.7 412.35 21.4 L424.35 9.4 Q424.65 9.1 425.05 9.1 425.45 9.1 425.75 9.4 L437.75 21.4 M412.05 26.1 Q412.05 25.7 412.35 25.4 412.65 25.1 413.05 25.1 L437.05 25.1 Q437.45 25.1 437.75 25.4 L438.05 26.1 437.75 26.8 425.75 38.8 425.05 39.1 424.35 38.8 412.35 26.8 Q412.05 26.5 412.05 26.1 M429.9 71.9 Q429.85 68.65 427.6 66.4 L427.6 66.35 Q425.3 64.1 422 64.1 418.7 64.1 416.35 66.35 L416.3 66.4 Q414.05 68.7 414.05 72.05 414.05 75.3 416.35 77.6 418.65 79.85 421.9 79.9 L422 79.9 Q425.3 79.9 427.55 77.6 L427.6 77.6 Q429.9 75.3 429.9 72.05 L429.9 71.9 M430.5 63.5 Q434 67 434 72.05 434 73.9 433.55 75.55 L434.85 76.9 435.15 77.2 435.5 77.55 440.4 82.45 Q442 84.15 442.05 86.4 L442.05 86.65 Q442 88.9 440.4 90.45 439.05 91.85 437.25 92.1 L436.45 92.15 435.7 92.1 Q433.9 91.85 432.45 90.5 L429.95 88 429.95 87.95 425.7 83.65 426.1 84.1 425.55 83.55 422 84 Q417 84 413.45 80.5 410 77 410 72.05 410 67.05 413.45 63.5 417.05 60 422 60 427.05 60 430.5 63.5 M426.05 74.1 L418.05 74.1 418.05 70.1 426.05 70.1 426.05 74.1 M470.05 68.1 L474.05 68.1 474.05 70.1 476.05 70.1 476.05 74.1 474.05 74.1 474.05 76.1 470.05 76.1 470.05 74.1 468.05 74.1 468.05 70.1 470.05 70.1 470.05 68.1 M466.35 66.35 L466.3 66.4 Q464.05 68.7 464.05 72.05 464.05 75.3 466.35 77.6 468.65 79.85 471.9 79.9 L472 79.9 Q475.3 79.9 477.55 77.6 L477.6 77.6 Q479.9 75.3 479.9 72.05 L479.9 71.9 Q479.85 68.65 477.6 66.4 L477.6 66.35 Q475.3 64.1 472 64.1 468.7 64.1 466.35 66.35 M392 17 L392 19 376 35 360 19 360 17 Q360 16.15 360.55 15.55 361.15 15 362 15 L389.95 15 Q390.8 15 391.4 15.55 392 16.15 392 17 M340.4 34.45 Q339.8 35 338.95 35 L311 35 Q310.15 35 309.55 34.45 309 33.85 309 33 L309 31 325 15 341 31 341 33 Q341 33.85 340.4 34.45 M362 72 L372 72 372 62.05 Q372 61.2 372.55 60.6 373.15 60 374 60 L378 60 Q378.8 60 379.4 60.6 380 61.2 380 62 L380 72 390 72 Q390.8 72 391.4 72.6 392 73.2 392 74 L392 78 Q392 78.85 391.4 79.45 390.8 80 390 80 L380 80 380 90 Q380 90.85 379.4 91.45 378.8 92 378 92 L374 92 Q373.15 92 372.55 91.45 372 90.85 372 90 L372 80 362 80 Q361.15 80 360.55 79.45 360 78.85 360 78 L360 74.05 Q360 73.2 360.55 72.6 361.15 72 362 72 M341.4 72.6 Q342 73.2 342 74 L342 78 Q342 78.85 341.4 79.45 340.8 80 340 80 L312 80 Q311.15 80 310.55 79.45 310 78.85 310 78 L310 74.05 Q310 73.2 310.55 72.6 311.15 72 312 72 L340 72 Q340.8 72 341.4 72.6 M384.05 134 L384.05 138 388.05 138 388.05 134 384.05 134 M368.05 118 L380.05 118 380.05 130 392.05 130 392.05 142 356.05 142 356.05 126 368.05 126 368.05 118 M376.05 122 L372.05 122 372.05 126 376.05 126 376.05 122 M338 110.95 L338 114.95 334 114.95 334 110.95 318 110.95 318 124.95 342 124.95 342 142.95 Q342 143.8 341.4 144.4 340.8 144.95 340 144.95 L312 144.95 Q311.15 144.95 310.55 144.4 310 143.8 310 142.95 L310 124.95 314 124.95 314 110.95 Q314 109.3 315.15 108.15 316.35 106.95 318 106.95 L334 106.95 Q335.65 106.95 336.8 108.15 338 109.35 338 110.95 M334 117.95 L334 115 338 115 338 117.95 334 117.95 M330 136.95 L330 132.95 322 132.95 322 136.95 324 136.95 324 140.95 328 140.95 328 136.95 330 136.95 M360.05 134 L364.05 134 364.05 130 360.05 130 360.05 134 M361.7 162.85 Q362.1 162.05 362.9 161.85 L367.75 160.55 367.55 159.65 Q367.3 158.8 367.7 158.1 368.1 157.35 368.95 157.15 L374.75 155.6 Q375.5 155.4 376.25 155.85 376.95 156.2 377.15 157 L377.4 157.95 382.25 156.7 Q383 156.45 383.8 156.9 384.5 157.3 384.7 158.1 L386.2 163.8 363.05 170 361.55 164.35 Q361.35 163.5 361.7 162.85 M330.05 162.1 L335.05 162.1 Q335.85 162.1 336.45 162.7 337.05 163.3 337.05 164.1 L337.05 170 313.05 170 313.05 164.15 Q313.05 163.3 313.6 162.7 314.2 162.1 315.05 162.1 L320.05 162.1 320.05 161.15 Q320.05 160.3 320.6 159.7 321.2 159.1 322.05 159.1 L328.05 159.1 Q328.85 159.1 329.45 159.7 330.05 160.3 330.05 161.1 L330.05 162.1 M335.05 194.1 L315.05 194.1 Q314.2 194.1 313.6 193.55 313.05 192.95 313.05 192.1 L313.05 172 337.05 172 337.05 192.1 Q337.05 192.95 336.45 193.55 335.85 194.1 335.05 194.1 M363.05 192.1 L363.05 172 387.05 172 387.05 192.1 Q387.05 192.95 386.45 193.55 385.85 194.1 385.05 194.1 L365.05 194.1 Q364.2 194.1 363.6 193.55 363.05 192.95 363.05 192.1 M465 122 L463 122 463 130 465 130 465 122 M432.4 113.6 Q433 114.2 433 115 L433 126 441 126 Q441.8 126 442.4 126.6 443 127.2 443 128 L443 139 Q443 139.85 442.4 140.45 441.8 141 441 141 L411 141 Q410.15 141 409.55 140.45 409 139.85 409 139 L409 128.05 Q409 127.2 409.55 126.6 410.15 126 411 126 L418 126 418 115.05 Q418 114.2 418.55 113.6 419.15 113 420 113 L431 113 Q431.8 113 432.4 113.6 M438 134.7 Q438 133.95 437.55 133.4 437.1 132.85 436.25 132.7 L437.7 131.1 437.7 130 433.4 130 433.4 131.35 435.6 131.35 434.25 132.9 434.25 134 435.2 133.85 Q435.8 133.85 436.15 134.1 436.5 134.35 436.5 134.8 L436.2 135.45 435.4 135.65 Q434.65 135.65 433.65 134.95 L433 136.2 Q434.2 137 435.35 137 436.5 137 437.25 136.4 438 135.8 438 134.7 M418.8 132.1 Q418.8 131.1 418.1 130.5 417.45 130 416.55 130 415.65 130 415.1 130.4 414.5 130.75 414 131.5 L415.25 132.25 Q415.85 131.3 416.45 131.3 L417.05 131.5 417.3 132.1 417 132.85 416.15 133.8 414.15 135.85 414.15 137 419 137 419 135.6 416.25 135.6 417.5 134.35 418.5 133.1 418.8 132.1 M424 118 L424 119.35 425.45 119.35 425.45 125 427 125 427 118 424 118 M428.4 162.6 Q429 163.2 429 164 L429 179 Q429 179.85 428.4 180.45 427.8 181 427 181 L423 181 Q422.15 181 421.55 180.45 421 179.85 421 179 L421 164.05 Q421 163.2 421.55 162.6 422.15 162 423 162 L427 162 Q427.8 162 428.4 162.6 M421 188 Q421 186.35 422.15 185.2 423.35 184 425 184 426.7 184 427.85 185.2 L427.8 185.2 Q429 186.4 429 188 429 189.7 427.8 190.9 L427.8 190.85 Q426.65 192 425 192 423.3 192 422.15 190.85 421 189.65 421 188 M473.35 171.85 Q473 172.15 472.5 172.15 L466.15 172.15 465.55 171.95 465.1 171.5 465 170.75 Q465.4 166.15 468.25 163.6 471.05 161 475.3 161 479.55 161 482.25 163.3 485 165.75 485 170 485 172.05 484.45 173 L483.9 174.05 483.95 174.05 483.05 175.4 483 175.45 482.2 176.35 482.2 176.4 480.35 178.2 479.6 179.05 479.3 179.05 479.3 179.1 479.6 179.1 479.4 179.35 479.3 180.2 479.3 180.8 479.3 180.9 478.95 181.7 478.05 182 471.95 182 471.1 181.7 Q470.75 181.35 470.7 180.9 L470.7 178.1 470.85 178.1 Q470.95 177.2 471.25 176.65 471.7 175.7 473.25 174.05 L475.95 171.35 476.2 170.25 475.85 169.15 Q475.6 168.8 475.15 168.85 474.7 168.85 474.35 169.25 L474.35 169.2 Q473.9 169.9 473.8 171.05 L473.35 171.85 M475.4 184 Q477.3 184 478.65 185.25 480 186.55 480 188.45 480 190.35 478.65 191.7 477.3 193 475.4 193 473.6 193 472.3 191.7 471 190.4 471 188.45 471 186.55 472.3 185.25 473.6 184 475.4 184 M478.4 218.6 Q479 219.2 479 220 L479 240 Q479 240.85 478.4 241.45 477.8 242 477 242 L473 242 Q472.15 242 471.55 241.45 471 240.85 471 240 L471 220.05 Q471 219.2 471.55 218.6 472.15 218 473 218 L477 218 Q477.8 218 478.4 218.6 M461 242 Q460.15 242 459.55 241.45 459 240.85 459 240 L459 228.05 Q459 227.2 459.55 226.6 460.15 226 461 226 L465 226 Q465.8 226 466.4 226.6 467 227.2 467 228 L467 240 Q467 240.85 466.4 241.45 465.8 242 465 242 L461 242 M417 228 L417 240 Q417 240.85 416.4 241.45 415.8 242 415 242 L411 242 Q410.15 242 409.55 241.45 409 240.85 409 240 L409 228.05 Q409 227.2 409.55 226.6 410.15 226 411 226 L415 226 Q415.8 226 416.4 226.6 417 227.2 417 228 M428.55 270.5 L426.75 272.65 429.55 283.1 438.05 283.1 Q439.25 283.1 440.15 284 441.05 284.9 441.05 286.1 L441.05 292.95 440.75 293.65 440.05 293.95 412.05 293.95 411.35 293.65 Q411.05 293.35 411.05 292.95 L411.05 286.15 Q411.05 284.9 411.9 284.05 L411.9 284 Q412.8 283.1 414.05 283.1 L423.35 283.1 420.95 274.2 Q419.6 274 418.25 273.25 415.6 271.7 414.8 268.7 414 265.75 415.5 263 417.15 260.35 420.15 259.55 423.15 258.75 425.8 260.25 428.5 261.85 429.3 264.8 430.1 267.8 428.55 270.5 M476.1 260.25 Q478.85 258.75 481.85 259.55 484.85 260.35 486.4 263 488 265.75 487.2 268.7 486.4 271.7 483.65 273.25 482.4 274 481.05 274.2 L478.7 283.1 488.05 283.1 Q489.25 283.1 490.15 284 491.05 284.9 491.05 286.1 L491.05 292.95 490.75 293.65 Q490.45 293.95 490.05 293.95 L462.05 293.95 461.35 293.65 Q461.05 293.35 461.05 292.95 L461.05 286.15 Q461.05 284.9 461.9 284.05 L461.9 284 Q462.8 283.1 464.05 283.1 L472.45 283.1 475.25 272.65 Q474.15 271.8 473.35 270.5 471.9 267.8 472.7 264.8 473.5 261.85 476.1 260.25 M386.9 214.45 L387.75 215.2 387.75 215.25 Q392.6 220.1 392.6 227 392.6 233.9 387.75 238.7 L387.7 238.75 Q382.9 243.6 376 243.6 369.1 243.6 364.25 238.75 359.4 233.9 359.4 227 359.4 220.25 364.05 215.45 L364.25 215.2 365.05 214.5 Q365.35 214.25 365.8 214.3 366.2 214.3 366.45 214.65 L369 217.7 369.25 218.4 368.9 219.1 368.5 219.45 368.35 219.6 Q365.4 222.7 365.4 227 365.4 231.4 368.5 234.5 371.6 237.6 376 237.6 380.3 237.6 383.35 234.65 L383.5 234.5 383.65 234.35 Q386.6 231.3 386.6 227 386.6 222.6 383.5 219.5 L383.45 219.5 383 219.05 382.65 218.35 Q382.65 217.95 382.9 217.65 L385.5 214.6 Q385.75 214.25 386.2 214.25 L386.9 214.45 M378.65 210.3 L378.95 211 378.95 228 378.65 228.7 377.95 229 373.95 229 373.25 228.7 Q372.95 228.4 372.95 228 L372.95 211 Q372.95 210.6 373.25 210.3 373.55 210 373.95 210 L377.95 210 Q378.35 210 378.65 210.3 M337 210 Q337.85 210 338.45 210.6 339 211.2 339 212.05 L339 240 Q339 240.85 338.45 241.45 337.85 242 337 242 L335 242 319 226 335 210 337 210 M334.85 258 Q337.8 258 339.9 260.05 342 262.15 342 265.2 342 268.15 339.9 270.25 337.8 272.35 334.85 272.35 331.85 272.35 329.75 270.25 L329.2 269.65 322.2 274.5 322.35 275.95 322.1 277.85 329.15 282.35 329.75 281.65 Q331.85 279.55 334.85 279.55 337.8 279.55 339.9 281.65 342 283.75 342 286.75 342 289.75 339.9 291.85 337.8 293.95 334.85 293.95 331.85 293.95 329.75 291.85 327.7 289.75 327.7 286.75 L327.8 285.7 320.3 280.95 320.2 281.05 Q318.1 283.15 315.15 283.15 312.15 283.15 310.05 281.05 308 278.95 308 275.95 308 272.95 310.05 270.85 312.15 268.75 315.15 268.75 318.1 268.75 320.2 270.85 L320.6 271.25 327.8 266.35 327.7 265.2 Q327.7 262.15 329.75 260.05 331.85 258 334.85 258 M361.05 292.95 L361.05 286.15 Q361.05 284.9 361.9 284.05 L361.9 284 Q362.8 283.1 364.05 283.1 L373 283.1 373 273.4 Q371.75 272.85 370.65 271.8 368.5 269.6 368.5 266.5 368.5 263.4 370.65 261.2 372.9 259 376 259 379.1 259 381.3 261.2 383.5 263.4 383.5 266.5 383.5 269.6 381.3 271.8 380.25 272.85 379 273.4 L379 283.1 388.05 283.1 Q389.25 283.1 390.15 284 391.05 284.9 391.05 286.1 L391.05 292.95 390.75 293.65 390.05 293.95 362.05 293.95 361.35 293.65 Q361.05 293.35 361.05 292.95 M329.4 321.15 L329.4 319.1 321.3 319.1 321.3 321.65 325.45 321.65 322.9 324.65 322.9 326.85 324.65 326.45 Q325.85 326.45 326.5 326.95 327.15 327.45 327.15 328.25 327.15 329.1 326.6 329.55 326 329.95 325.1 329.95 323.65 329.95 321.75 328.65 L320.55 331 Q322.8 332.55 325 332.55 327.2 332.55 328.6 331.35 330.05 330.15 330.05 328.1 330.05 326.7 329.15 325.6 328.3 324.55 326.7 324.25 L329.4 321.15 M393.95 313.95 L393.95 337.95 355.95 337.95 355.95 318.95 Q355.95 313.95 360.95 313.95 L393.95 313.95 M374.4 320 L372 320 372 331 379 331 379 328.8 374.4 328.8 374.4 320 M340.75 318.65 Q342 321.55 342 325 342 328.45 340.75 331.35 339.6 334.05 337.3 336.3 332.65 341 326 341 319.35 341 314.65 336.3 310 331.65 310 325 310 318.35 314.65 313.65 319.35 309 326 309 332.65 309 337.3 313.65 339.6 315.95 340.75 318.65 M455.95 318.95 Q455.95 313.95 460.95 313.95 L493.95 313.95 493.95 337.95 455.95 337.95 455.95 318.95 M470.55 320.75 L468.35 320.75 468.35 330.55 474.7 330.55 474.7 328.6 470.55 328.6 470.55 320.75 M479.5 320.75 L475.55 320.75 475.55 322.65 477.4 322.65 477.4 330.55 479.5 330.55 479.5 320.75 M443.95 318.95 L443.95 337.95 405.95 337.95 405.95 313.95 438.95 313.95 Q443.95 313.95 443.95 318.95 M423.35 323.15 L425.05 323.15 426.6 323.45 Q427 323.75 427 324.65 427 325.55 426.6 325.95 426.2 326.4 425 326.4 L423.35 326.4 423.35 323.15 M424.9 321 L421 321 421 332 423.35 332 423.35 328.5 424.9 328.5 427.15 332 430 332 427.4 328.05 Q429.4 327.3 429.4 324.65 429.4 322.7 428.35 321.9 427.3 321 424.9 321 M639 215.2 L617.45 221 640 221 640 240 Q640 240.85 639.4 241.45 638.8 242 638 242 L612 242 Q611.15 242 610.55 241.45 610 240.85 610 240 L610 223 608.2 216.3 Q607.95 215.45 608.35 214.75 608.8 214 609.6 213.75 L634.7 207.05 636.2 207.25 Q636.95 207.65 637.2 208.45 L639 215.2 M587.9 213 L583.95 213 583.95 218 587.9 218 587.9 213 M591 212 L591 240 Q591 240.85 590.4 241.45 589.8 242 589 242 L561 242 Q560.15 242 559.55 241.45 559 240.85 559 240 L559 212.05 Q559 211.2 559.55 210.6 560.15 210 561 210 L589 210 Q589.8 210 590.4 210.6 591 211.2 591 212 M568.95 213 L568.95 225 580.95 225 580.95 213 568.95 213 M583.95 239 L587.9 239 587.9 234 583.95 234 583.95 239 M583.95 228 L587.9 228 587.9 223 583.95 223 583.95 228 M580.95 239 L580.95 228 568.95 228 568.95 239 580.95 239 M590.75 264.15 L590.8 264.2 Q591.9 265.4 591.7 267.05 L591.7 267.15 589.2 280.4 589.15 280.45 Q588.95 281.65 587.65 282.5 L587.5 282.55 585.5 283 570.5 283 Q569.25 283 568.45 282.5 L568.4 282.5 Q567.05 281.65 566.85 280.45 L566.85 280.4 564.55 267.95 560 267.95 Q559.6 267.95 559.3 267.65 559 267.35 559 266.95 L559 264.05 559 263.95 Q559 263.55 559.3 263.25 559.6 262.95 560 262.95 L571.95 262.95 572.25 263 588 263 Q589.65 263 590.75 264.15 M567 289 Q567 287.35 568.15 286.15 569.35 285 571 285 572.65 285 573.8 286.15 575 287.35 575 289 575 290.65 573.8 291.8 572.65 293 571 293 569.35 293 568.15 291.8 567 290.65 567 289 M581 289 Q581 287.35 582.15 286.15 583.35 285 585 285 586.65 285 587.8 286.15 589 287.35 589 289 589 290.65 587.8 291.8 586.65 293 585 293 583.35 293 582.15 291.8 581 290.65 581 289 M624.95 263.95 Q624.95 265.2 624.1 266.1 L617.1 273.1 Q616.2 273.95 614.95 273.95 613.7 273.95 612.85 273.1 611.95 272.2 611.95 270.95 611.95 269.7 612.85 268.85 L619.85 261.85 Q620.7 260.95 621.95 260.95 623.2 260.95 624.1 261.85 624.95 262.7 624.95 263.95 M632.1 261.85 L639.1 268.85 Q639.95 269.7 639.95 270.95 639.95 272.2 639.1 273.1 638.2 273.95 636.95 273.95 635.7 273.95 634.85 273.1 L627.85 266.1 Q626.95 265.2 626.95 263.95 626.95 262.7 627.85 261.85 628.7 260.95 629.95 260.95 631.2 260.95 632.1 261.85 M614.4 291.65 Q613.85 291.3 613.8 290.8 L611.35 277.8 Q611.2 277.1 611.65 276.55 612.15 276 613 276 L639 276 Q639.8 276 640.3 276.55 640.8 277.1 640.7 277.75 L638.25 290.8 637.6 291.65 Q637.05 292 636.4 292 L615.6 292 614.4 291.65 M565.9 218 L565.9 213 561.95 213 561.95 218 565.9 218 M535 210 L539 210 Q539.8 210 540.4 210.6 541 211.2 541 212 L541 240 Q541 240.85 540.4 241.45 539.8 242 539 242 L535 242 Q534.15 242 533.55 241.45 533 240.85 533 240 L533 212.05 Q533 211.2 533.55 210.6 534.15 210 535 210 M528.4 218.6 Q529 219.2 529 220 L529 240 Q529 240.85 528.4 241.45 527.8 242 527 242 L523 242 Q522.15 242 521.55 241.45 521 240.85 521 240 L521 220.05 Q521 219.2 521.55 218.6 522.15 218 523 218 L527 218 Q527.8 218 528.4 218.6 M561.95 234 L561.95 239 565.9 239 565.9 234 561.95 234 M561.95 228 L565.9 228 565.9 223 561.95 223 561.95 228 M517 228 L517 240 Q517 240.85 516.4 241.45 515.8 242 515 242 L511 242 Q510.15 242 509.55 241.45 509 240.85 509 240 L509 228.05 Q509 227.2 509.55 226.6 510.15 226 511 226 L515 226 Q515.8 226 516.4 226.6 517 227.2 517 228 M512.6 259.7 Q513.2 259.1 514.05 259.1 L538.05 259.1 Q538.85 259.1 539.45 259.7 540.05 260.3 540.05 261.1 L540.05 279.95 540 279.95 Q540 285.75 535.9 289.8 531.85 293.9 526.05 293.9 L526 293.9 Q520.2 293.9 516.1 289.8 512.05 285.75 512.05 279.95 L512.05 261.15 Q512.05 260.3 512.6 259.7 M523.85 265.95 Q524.75 265 526 265 527.25 265 528.1 265.95 529 266.9 529 268.25 L529 275.7 Q529 277.05 528.1 278 527.25 279 526 279 524.75 279 523.85 278 523 277.05 523 275.7 L523 268.25 Q523 266.9 523.85 265.95 M515.05 271.95 L520 271.95 520 275.7 Q520.05 278.2 521.65 280 523.45 282.05 526 282 528.6 282.05 530.4 279.95 L530.3 280.1 Q532 278.25 532 275.7 L532 271.95 537.05 271.95 537.05 262.1 515.05 262.1 515.05 271.95 M555.95 318.95 Q555.95 313.95 560.95 313.95 L593.95 313.95 593.95 337.95 555.95 337.95 555.95 318.95 M543.95 318.95 L543.95 337.95 505.95 337.95 505.95 313.95 538.95 313.95 Q543.95 313.95 543.95 318.95 M630.3 321.35 Q629.35 320.55 628.1 320.55 626.8 320.55 626 321.1 625.2 321.65 624.5 322.7 L626.25 323.75 Q627.05 322.4 628 322.4 628.5 322.4 628.8 322.75 629.15 323.05 629.15 323.55 629.15 324.05 628.75 324.6 L627.55 326 624.65 328.9 624.65 330.55 631.55 330.55 631.55 328.6 627.7 328.6 629.45 326.75 630.9 325 631.25 323.55 Q631.25 322.15 630.3 321.35 M521.95 324 Q521.95 324.8 521.55 325.2 L520.05 325.55 518.45 325.55 518.45 322.65 520.05 322.65 Q521.15 322.65 521.55 322.95 521.95 323.25 521.95 324 M523.2 321.55 Q522.25 320.75 519.95 320.75 L516.25 320.75 516.25 330.55 518.45 330.55 518.45 327.45 519.95 327.45 522.1 330.55 524.8 330.55 522.35 327.05 Q524.2 326.35 524.2 324 524.2 322.3 523.2 321.55 M566.95 320.75 L566.95 330.55 573.3 330.55 573.3 328.6 569.15 328.6 569.15 320.75 566.95 320.75 M527.55 322.65 L527.55 330.55 529.65 330.55 529.65 320.75 525.7 320.75 525.7 322.65 527.55 322.65 M643.95 318.95 L643.95 337.95 605.95 337.95 605.95 313.95 638.95 313.95 Q643.95 313.95 643.95 318.95 M284.45 9.6 Q285 10.2 285 11.05 L285 39 Q285 39.85 284.45 40.45 283.85 41 283 41 L281 41 265 25 281 9 283 9 Q283.85 9 284.45 9.6 M577.95 320.55 Q576.65 320.55 575.85 321.1 575.05 321.65 574.35 322.7 L576.1 323.75 Q576.9 322.4 577.85 322.4 578.35 322.4 578.65 322.75 579 323.05 579 323.55 579 324.05 578.6 324.6 L577.4 326 574.5 328.9 574.5 330.55 581.4 330.55 581.4 328.6 577.55 328.6 579.3 326.75 580.75 325 581.1 323.55 Q581.1 322.15 580.15 321.35 579.2 320.55 577.95 320.55 M618.65 322.65 L620.15 322.95 Q620.55 323.25 620.55 324 620.55 324.8 620.15 325.2 619.75 325.55 618.65 325.55 L617.05 325.55 617.05 322.65 618.65 322.65 M621.8 321.55 Q620.85 320.75 618.55 320.75 L614.85 320.75 614.85 330.55 617.05 330.55 617.05 327.45 618.55 327.45 620.7 330.55 623.4 330.55 620.95 327.05 Q622.8 326.35 622.8 324 622.8 322.3 621.8 321.55 M264.05 68.1 L264.05 72.1 260.05 72.1 260.05 60.1 272.05 60.1 272.05 64.1 268.05 64.1 272.05 68.1 272.05 72.1 268.05 72.1 264.05 68.1 M280.05 68.1 L284.05 64.1 280.05 64.1 280.05 60.1 292.05 60.1 292.05 72.1 288.05 72.1 288.05 68.1 284.05 72.1 280.05 72.1 280.05 68.1 M260.05 80.1 L264.05 80.1 264.05 84.1 268.05 80.1 272.05 80.1 272.05 84.1 268.05 88.1 272.05 88.1 272.05 92.1 260.05 92.1 260.05 80.1 M280.05 80.1 L284.05 80.1 288.05 84.1 288.05 80.1 292.05 80.1 292.05 92.1 280.05 92.1 280.05 88.1 284.05 88.1 280.05 84.1 280.05 80.1 M215.55 9.6 Q216.15 9 217 9 L219 9 235 25 219 41 217 41 Q216.15 41 215.55 40.45 215 39.85 215 39 L215 11.05 Q215 10.2 215.55 9.6 M188.4 24.55 Q189 25.15 189 26 L189 28 175 42 161 28 161 26 Q161 25.15 161.55 24.55 162.15 24 163 24 L169 24 169 10 Q169 9.15 169.55 8.55 170.15 8 171 8 L178.95 8 Q179.8 8 180.4 8.55 181 9.15 181 10 L181 24 186.95 24 Q187.8 24 188.4 24.55 M190.05 69.85 Q190.05 70.65 189.4 71.25 L179.35 81.35 183.6 85.65 Q184.2 86.25 184.25 87.1 184.2 87.95 183.6 88.6 L182.2 90 162.05 90 162.05 69.85 163.45 68.4 Q164.05 67.8 164.95 67.75 165.8 67.8 166.4 68.4 L170.75 72.75 180.8 62.65 Q181.4 62.05 182.2 62 183.05 62.05 183.65 62.65 L189.35 68.35 Q189.95 69 190.05 69.85 M242.05 60.1 L242.05 64.1 238.05 68.1 242.05 68.1 242.05 72.1 230.05 72.1 230.05 60.1 234.05 60.1 234.05 64.1 238.05 60.1 242.05 60.1 M222.05 60.1 L222.05 72.1 210.05 72.1 210.05 68.1 214.05 68.1 210.05 64.1 210.05 60.1 214.05 60.1 218.05 64.1 218.05 60.1 222.05 60.1 M210.05 80.1 L222.05 80.1 222.05 92.1 218.05 92.1 218.05 88.1 214.05 92.1 210.05 92.1 210.05 88.1 214.05 84.1 210.05 84.1 210.05 80.1 M238.05 84.1 L242.05 88.1 242.05 92.1 238.05 92.1 234.05 88.1 234.05 92.1 230.05 92.1 230.05 80.1 242.05 80.1 242.05 84.1 238.05 84.1 M233 114 L217 114 217 122 233 122 233 114 M227 120 L227 116 231 116 231 120 227 120 M241 118 L241 142 209 142 209 110 233 110 241 118 M213 138 L237 138 237 126 213 126 213 138 M189.45 119.15 L190.5 121.1 190.55 121.2 Q193.7 127.45 190 133.95 186.3 140.75 178.95 141 178.35 141.05 177.85 140.65 177.4 140.25 177.35 139.6 176.8 136 176.9 134.3 176.95 133.7 177.3 133.25 177.7 132.8 178.35 132.8 181.4 132.55 182.95 129.95 L182.9 130 Q184.4 127.5 183.3 125 181.85 121.6 178.4 121.4 L178.35 121.4 Q175.9 121.35 174.15 123.1 176.6 124.5 177.6 125.4 178 125.75 178.1 126.25 L178.05 127.25 177.35 128 163.45 136.05 162.35 136.2 Q161.8 136.15 161.4 135.7 L161.05 134.7 161.1 118.4 161.3 117.55 161.9 116.95 161.95 116.9 162.7 116.7 163.45 116.9 166.95 118.9 Q168.85 116.35 171.2 115 L171.2 114.95 Q175.95 112.1 181.1 113.4 186.05 114.6 189.3 119 L189.45 119.15 M172.05 191 L166.05 191 Q165.2 191 164.6 190.45 164.05 189.85 164.05 189 L164.05 179 160.05 179 160.05 175 176.05 159 192.05 175 192.05 179 188.05 179 188.05 189 Q188.05 189.85 187.45 190.45 186.85 191 186.05 191 L180.05 191 180.05 179 172.05 179 172.05 191 M238 163.9 L238 179 238 179.35 Q237.7 182.1 236 183.85 L235.9 183.85 Q234.1 185.85 231.65 186.05 L231.6 186.05 Q229.05 186.3 227.35 184.5 225.7 182.9 225.95 180.2 226.2 177.8 227.95 176 229.65 174.3 231.65 174 L233 174 233 169 223 169 223 186 Q223.1 187.9 220.95 189.8 L220.9 189.95 Q219.1 191.7 216.75 191.95 L216.7 191.95 Q214.1 192.2 212.45 190.5 210.75 188.85 211.05 186.3 211.25 183.8 213 181.95 L213.1 181.9 Q214.75 180.3 216.7 179.9 L216.75 179.9 219 180 219 164 Q218.9 160.9 221.45 161 L235 161 Q238 161 238 163.9 M284 113.95 L268 113.95 268 121.95 284 121.95 284 113.95 M292 121.95 L292 139.95 Q292 140.8 291.4 141.4 290.8 141.95 290 141.95 L262 141.95 Q261.15 141.95 260.55 141.4 260 140.8 260 139.95 L260 121.95 264 121.95 264 113.95 Q264 112.3 265.15 111.15 266.35 109.95 268 109.95 L284 109.95 Q285.65 109.95 286.8 111.15 288 112.35 288 113.95 L288 121.95 292 121.95 M278 133.95 L280 133.95 280 129.95 272 129.95 272 133.95 274 133.95 274 137.95 278 137.95 278 133.95 M269.2 162.5 Q269.65 160.95 271.45 161 L285 161 Q288 161 288 163.9 L288 179 288 179.35 287.7 181 280.9 174.2 281.65 174 283 174 283 169 275.7 169 269.2 162.5 M264.5 163.55 Q265.1 162.95 265.95 162.95 266.8 162.95 267.35 163.55 L290.35 186.55 Q290.95 187.1 290.95 187.95 290.95 188.8 290.35 189.4 289.8 189.95 288.95 189.95 288.1 189.95 287.5 189.4 L264.5 166.4 Q263.95 165.8 263.95 164.95 263.95 164.1 264.5 163.55 M263 181.95 L263.1 181.9 Q264.75 180.3 266.7 179.9 L266.75 179.9 269 180 269 173.7 273 177.7 273 186 Q273.1 187.9 270.95 189.8 L270.9 189.95 Q269.1 191.7 266.75 191.95 L266.7 191.95 Q264.1 192.2 262.45 190.5 260.75 188.85 261.05 186.3 261.25 183.8 263 181.95 M275.95 180.65 L281.4 186.1 Q278.95 186.2 277.35 184.5 275.85 183.05 275.95 180.65 M90 19 Q90.85 19 91.45 19.6 92 20.2 92 21.05 L92 29 Q92 29.85 91.45 30.45 90.85 31 90 31 L76 31 76 37 Q76 37.85 75.45 38.45 74.85 39 74 39 L72 39 58 25 72 11 74 11 Q74.85 11 75.45 11.6 76 12.2 76 13.05 L76 19 90 19 M139 22 L139 24 Q139 24.85 138.4 25.45 137.8 26 136.95 26 L131 26 131 40 Q131 40.85 130.4 41.45 129.8 42 128.95 42 L121 42 Q120.15 42 119.55 41.45 119 40.85 119 40 L119 26 113 26 Q112.15 26 111.55 25.45 111 24.85 111 24 L111 22 125 8 139 22 M118.4 62.7 Q119 62.1 119.85 62.05 120.7 62.05 121.3 62.65 L131.35 72.75 135.65 68.45 Q136.25 67.85 137.1 67.8 138 67.85 138.6 68.45 L140.05 69.9 140.05 90.05 119.85 90.05 118.45 88.6 Q117.85 88 117.8 87.15 117.85 86.3 118.45 85.65 L122.75 81.35 112.7 71.25 Q112.1 70.65 112.05 69.9 112.1 69 112.7 68.4 L118.4 62.7 M87.05 84.3 Q86.2 84.25 85.6 83.6 L81.25 79.3 71.2 89.35 Q70.6 90 69.8 90.05 68.95 90 68.35 89.35 L62.65 83.65 Q62.05 83.05 62 82.2 62 81.4 62.6 80.75 L72.65 70.7 68.4 66.4 Q67.8 65.8 67.75 64.95 67.8 64.05 68.4 63.45 L69.8 62.05 90 62.05 90 82.2 88.55 83.6 Q87.95 84.25 87.05 84.3 M24 13.05 Q24 12.2 24.55 11.6 25.15 11 26 11 L28 11 42 25 28 39 26 39 Q25.15 39 24.55 38.45 24 37.85 24 37 L24 31 10 31 Q9.15 31 8.55 30.45 8 29.85 8 29 L8 21.05 Q8 20.2 8.55 19.6 9.15 19 10 19 L24 19 24 13.05 M29.2 70.7 L39.3 80.8 Q39.9 81.4 39.95 82.25 39.95 83.05 39.35 83.65 L33.6 89.4 Q33 90 32.15 90.05 31.3 90 30.7 89.4 L20.6 79.3 16.3 83.6 Q15.7 84.2 14.85 84.3 14 84.3 13.4 83.7 L11.95 82.25 11.95 62.05 32.15 62.05 33.6 63.5 Q34.2 64.1 34.2 64.95 34.15 65.75 33.55 66.35 L29.2 70.7 M66.55 117.6 Q67.15 117.65 67.6 118.1 L72.6 124.1 82.6 112.25 Q82.95 111.8 83.55 111.7 84.15 111.65 84.6 112.05 L90.55 117.15 Q91 117.5 91.05 118.1 91.1 118.7 90.75 119.2 L73.75 139.5 73.05 139.95 72.25 139.95 71.5 139.5 59.45 125.1 Q59.05 124.6 59.1 124.05 59.15 123.4 59.6 123.05 L65.5 117.95 Q66 117.55 66.55 117.6 M26 110 L42 126 26 142 22 142 22 134 18 134 18 138 10 138 10 122 Q10 120.35 11.15 119.2 12.35 118 14 118 L22 118 22 110 26 110 M37.15 159 Q38.05 159.9 38.05 161.1 L38.05 189.1 Q38.05 190.35 37.15 191.25 L37.15 191.3 Q36.25 192.1 35.05 192.1 L14.05 192.1 Q12.8 192.1 11.95 191.3 L11.9 191.25 Q11.05 190.35 11.05 189.1 L11.05 161.15 Q11.05 159.9 11.9 159.05 L11.9 159 Q12.8 158.1 14.05 158.1 L35.05 158.1 Q36.25 158.1 37.15 159 M32.05 164.1 L17.05 164.1 17.05 184.1 32.05 184.1 32.05 164.1 M63.9 159.05 L63.9 159 Q64.8 158.1 66.05 158.1 L83.05 158.1 Q84.25 158.1 85.15 159 86.05 159.9 86.05 161.1 L86.05 189.1 Q86.05 190.35 85.15 191.25 L85.15 191.3 Q84.25 192.1 83.05 192.1 L66.05 192.1 Q64.8 192.1 63.95 191.3 L63.9 191.25 Q63.05 190.35 63.05 189.1 L63.05 161.15 Q63.05 159.9 63.9 159.05 M69.05 164.1 L69.05 184.1 80.05 184.1 80.05 164.1 69.05 164.1 M139 110 Q139.8 110 140.4 110.6 141 111.2 141 112 L141 118 133 126 141 134 141 140 Q141 140.85 140.4 141.45 139.8 142 139 142 L133 142 125 134 117 142 111 142 Q110.15 142 109.55 141.45 109 140.85 109 140 L109 134 117 126 109 118 109 112.05 Q109 111.2 109.55 110.6 110.15 110 111 110 L117 110 125 118 133 110 139 110 M125 165.75 L124 165.7 124 185.75 125 185.7 Q128.5 185.4 131.1 182.8 L131.15 182.8 Q134.05 179.9 134.05 175.7 134.05 171.55 131.15 168.6 128.5 166.05 125 165.75 M112.7 164.4 L112.7 164.35 Q117.4 159.7 124 159.7 L125 159.75 Q130.95 160.05 135.3 164.4 140 169.1 140 175.7 140 182.35 135.3 187.05 130.95 191.35 125 191.7 L124 191.7 Q117.4 191.7 112.7 187.05 108 182.35 108 175.7 108 169.1 112.65 164.4 L112.7 164.4 M159 210 L161 210 175 224 175 212.05 Q175 211.2 175.55 210.6 176.15 210 177 210 L179 210 195 226 179 242 177 242 Q176.15 242 175.55 241.45 175 240.85 175 240 L175 228 161 242 159 242 Q158.15 242 157.55 241.45 157 240.85 157 240 L157 212.05 Q157 211.2 157.55 210.6 158.15 210 159 210 M139.4 211.6 Q140 212.2 140 213 L140 239 Q140 239.85 139.4 240.45 138.8 241 138 241 L112 241 Q111.15 241 110.55 240.45 110 239.85 110 239 L110 213.05 Q110 212.2 110.55 211.6 111.15 211 112 211 L138 211 Q138.8 211 139.4 211.6 M81.15 270.5 Q81.5 269.9 81.35 269.25 81.2 268.6 80.55 268.3 L79.3 268.1 Q78.65 268.25 78.35 268.9 78.05 269.45 78.2 270.1 78.35 270.75 78.95 271.1 L80.15 271.25 81.15 270.5 M83.7 268.65 Q83.85 269.3 84.45 269.6 L85.7 269.75 86.7 269.05 86.85 267.8 Q86.7 267.15 86.1 266.85 85.45 266.45 84.85 266.6 84.15 266.8 83.85 267.4 83.55 268 83.7 268.65 M86.75 259.95 Q87.35 260.25 87.5 260.9 L90.9 273.4 90.75 274.65 89.75 275.4 61.4 282.9 60.2 282.75 Q59.6 282.45 59.45 281.8 L56.05 269.35 Q55.9 268.65 56.2 268.05 56.55 267.5 57.2 267.3 L69.8 263.95 68.75 260.05 Q68.55 259.4 68.9 258.85 L69.15 258.45 69.1 258.25 69.9 258.05 71.15 258.25 Q71.7 258.6 71.9 259.25 L72.95 263.15 85.55 259.8 86.75 259.95 M115.95 271.65 L115.15 268.55 112 269.35 112.8 272.45 109.65 273.3 110.5 276.4 113.65 275.55 114.5 278.7 117.65 277.9 116.8 274.75 119.9 273.9 119.05 270.8 115.95 271.65 M119.1 258.25 L119.9 258.05 121.15 258.25 Q121.7 258.6 121.9 259.25 L122.95 263.15 135.55 259.8 136.75 259.95 Q137.35 260.25 137.5 260.9 L140.9 273.4 140.75 274.65 139.75 275.4 111.4 282.9 110.2 282.75 Q109.6 282.45 109.45 281.8 L106.05 269.35 Q105.9 268.65 106.2 268.05 106.55 267.5 107.2 267.3 L119.8 263.95 118.75 260.05 Q118.55 259.4 118.9 258.85 L119.15 258.45 119.1 258.25 M83.85 220.15 L86.15 216.85 87.65 218.15 87.7 218.2 Q91 221.55 91 226.25 91 231 87.7 234.3 L87.6 234.4 86.15 235.65 83.85 232.35 84.75 231.6 84.8 231.55 Q87 229.35 87 226.25 87 223.2 84.8 221 L84.75 220.9 83.85 220.15 M96 280 L96 294 95.7 294.7 95 295 93 295 92.3 294.7 Q92 294.4 92 294 L92 283 90 283 89.3 282.7 89 282 89 280 Q89 279.6 89.3 279.3 89.6 279 90 279 L95 279 Q95.4 279 95.7 279.3 L96 280 M136.1 266.85 Q135.45 266.45 134.85 266.6 134.15 266.8 133.85 267.4 133.55 268 133.7 268.65 133.85 269.3 134.45 269.6 L135.7 269.75 Q136.3 269.6 136.7 269.05 137 268.45 136.85 267.8 136.7 267.15 136.1 266.85 M130.15 271.25 L131.15 270.5 Q131.5 269.9 131.35 269.25 131.2 268.6 130.55 268.3 L129.3 268.1 Q128.65 268.25 128.35 268.9 128.05 269.45 128.2 270.1 128.35 270.75 128.95 271.1 L130.15 271.25 M156.05 269.35 Q155.9 268.65 156.2 268.05 156.55 267.5 157.2 267.3 L169.8 263.95 168.75 260.05 Q168.55 259.4 168.9 258.85 L169.15 258.45 169.1 258.25 169.9 258.05 171.15 258.25 Q171.7 258.6 171.9 259.25 L172.95 263.15 185.55 259.8 186.75 259.95 Q187.35 260.25 187.5 260.9 L190.9 273.4 190.75 274.65 Q190.35 275.2 189.75 275.4 L161.4 282.9 160.2 282.75 Q159.6 282.45 159.45 281.8 L156.05 269.35 M135.3 279.3 Q135.6 279 136 279 L144 279 Q144.4 279 144.7 279.3 L145 280 145 288 144.7 288.7 Q144.4 289 144 289 L139 289 139 291 144 291 Q144.4 291 144.7 291.3 L145 292 145 294 144.7 294.7 Q144.4 295 144 295 L136 295 Q135.6 295 135.3 294.7 135 294.4 135 294 L135 286 Q135 285.6 135.3 285.3 135.6 285 136 285 L141 285 141 283 136 283 Q135.6 283 135.3 282.7 135 282.4 135 282 L135 280 Q135 279.6 135.3 279.3 M159.65 273.3 L160.5 276.4 163.65 275.55 164.5 278.7 167.65 277.9 166.8 274.75 169.9 273.9 169.05 270.8 165.95 271.65 165.15 268.55 162 269.35 162.8 272.45 159.65 273.3 M77.05 210.1 Q77.85 210.1 78.45 210.7 79.05 211.3 79.05 212.1 L79.05 240.1 Q79.05 240.95 78.45 241.55 77.85 242.1 77.05 242.1 L75.05 242.1 63.05 230.1 59.05 230.1 59.05 222.1 63.05 222.1 75.05 210.1 77.05 210.1 M27.05 210.1 Q27.85 210.1 28.45 210.7 29.05 211.3 29.05 212.1 L29.05 240.1 Q29.05 240.95 28.45 241.55 27.85 242.1 27.05 242.1 L25.05 242.1 13.05 230.1 9.05 230.1 9.05 222.1 13.05 222.1 25.05 210.1 27.05 210.1 M69.05 270.8 L65.95 271.65 65.15 268.55 62 269.35 62.8 272.45 59.65 273.3 60.5 276.4 63.65 275.55 64.5 278.7 67.65 277.9 66.8 274.75 69.9 273.9 69.05 270.8 M31.55 276.6 Q31 277.2 31 278 31 278.85 31.55 279.4 32.15 280 33 280 33.8 280 34.4 279.4 35 278.85 35 278 35 277.2 34.4 276.6 33.8 276 33 276 32.15 276 31.55 276.6 M40 276 Q39.15 276 38.55 276.6 38 277.2 38 278 38 278.85 38.55 279.4 39.15 280 40 280 40.8 280 41.4 279.4 42 278.85 42 278 42 277.2 41.4 276.6 40.8 276 40 276 M16 272 L12 272 12 275.95 8 275.95 8 279.95 12 279.95 12 283.95 16 283.95 16 279.95 19.95 279.95 19.95 275.95 16 275.95 16 272 M23.55 261.6 L24 261.25 24 261 25 261 Q25.8 261 26.4 261.6 27 262.2 27 263 L27 268 43 268 Q43.8 268 44.4 268.6 45 269.2 45 270 L45 286 Q45 286.85 44.4 287.45 43.8 288 43 288 L7 288 Q6.15 288 5.55 287.45 5 286.85 5 286 L5 270.05 Q5 269.2 5.55 268.6 6.15 268 7 268 L23 268 23 263.05 Q23 262.2 23.55 261.6 M76 309 Q82.65 309 87.3 313.65 92 318.35 92 325 92 331.65 87.3 336.3 82.65 341 76 341 69.35 341 64.65 336.3 60 331.65 60 325 60 318.35 64.65 313.65 69.35 309 76 309 M27.35 318 L24.6 318 19 331 22.05 331 23.25 328.2 28.7 328.2 29.9 331 33 331 27.35 318 M76.45 326.6 L78.45 326.85 Q79.15 327.1 79.15 328.05 79.15 328.9 78.5 329.25 L76.7 329.55 74.8 329.55 74.8 326.6 76.45 326.6 M74.8 321.5 L76.1 321.5 77.9 321.75 Q78.4 322.05 78.4 322.9 78.4 323.75 77.85 324.05 L76.1 324.3 74.8 324.3 74.8 321.5 M76.85 319 L72 319 72 332 77.5 332 Q80.05 332 81.1 330.8 82 329.75 82 328.4 82 327.15 81.3 326.35 80.6 325.5 79.45 325.25 L79.9 325.05 80.35 324.7 Q81.3 324 81.3 322.45 81.3 321.2 80.45 320.2 L79.1 319.35 76.85 319 M37.3 313.65 Q42 318.35 42 325 42 331.65 37.3 336.3 32.65 341 26 341 19.35 341 14.65 336.3 10 331.65 10 325 10 318.35 14.65 313.65 19.35 309 26 309 32.65 309 37.3 313.65 M24.35 325.7 L26 321.85 27.6 325.7 24.35 325.7 M137.3 313.65 Q142 318.35 142 325 142 331.65 137.3 336.3 132.65 341 126 341 119.35 341 114.65 336.3 110 331.65 110 325 110 318.35 114.65 313.65 119.35 309 126 309 132.65 309 137.3 313.65 M311 212 Q311 211.2 311.6 210.6 312.2 210 313 210 L317 210 Q317.85 210 318.45 210.6 319 211.2 319 212.05 L319 226 319 240 Q319 240.85 318.45 241.45 317.85 242 317 242 L313 242 Q312.2 242 311.6 241.45 311 240.85 311 240 L311 212 M132.65 319 L129.05 319 126.5 322.85 123.9 319 120.3 319 124.55 325.35 120 332 123.6 332 126.5 327.75 129.35 332 133 332 128.5 325.3 132.65 319 M288.4 210.6 Q289 211.2 289 212 L289 240 Q289 240.85 288.4 241.45 287.8 242 287 242 L283 242 Q282.15 242 281.55 241.45 281 240.85 281 240 L281 226 265 242 263 242 Q262.15 242 261.55 241.45 261 240.85 261 240 L261 212.05 Q261 211.2 261.55 210.6 262.15 210 263 210 L265 210 281 226 281 212.05 Q281 211.2 281.55 210.6 282.15 210 283 210 L287 210 Q287.8 210 288.4 210.6 M244.45 210.6 Q245 211.2 245 212.05 L245 240 Q245 240.85 244.45 241.45 243.85 242 243 242 L241 242 227 228 227 240 Q227 240.85 226.45 241.45 225.85 242 225 242 L223 242 207 226 223 210 225 210 Q225.85 210 226.45 210.6 227 211.2 227 212.05 L227 224 241 210 243 210 Q243.85 210 244.45 210.6 M269 271 L265 271 265 287 281 287 281 283 285 283 285 289 Q285 289.85 284.45 290.45 L284.4 290.45 Q283.8 291 283 291 L263 291 Q262.15 291 261.55 290.45 261 289.85 261 289 L261 269.05 Q261 268.2 261.55 267.6 262.15 267 263 267 L269 267 269 271 M273 262 L289 262 Q289.4 262 289.7 262.3 L290 263 290 279 289.7 279.7 289 280 288.3 279.7 285 276.4 277.7 283.7 277 284 276.3 283.7 268.3 275.7 Q268 275.4 268 275 268 274.6 268.3 274.3 L275.6 267 272.3 263.7 Q272 263.4 272 263 272 262.6 272.3 262.3 272.6 262 273 262 M244.7 294.7 Q244.4 295 244 295 L242 295 Q241.6 295 241.3 294.7 241 294.4 241 294 L241 289 236 289 Q235.6 289 235.3 288.7 235 288.4 235 288 L235 280 Q235 279.6 235.3 279.3 235.6 279 236 279 L238 279 Q238.4 279 238.7 279.3 L239 280 239 285 241 285 241 280 Q241 279.6 241.3 279.3 241.6 279 242 279 L244 279 Q244.4 279 244.7 279.3 L245 280 245 294 244.7 294.7 M181.35 269.25 Q181.2 268.6 180.55 268.3 L179.3 268.1 Q178.65 268.25 178.35 268.9 178.05 269.45 178.2 270.1 178.35 270.75 178.95 271.1 L180.15 271.25 Q180.8 271.05 181.15 270.5 181.5 269.9 181.35 269.25 M183.7 268.65 Q183.85 269.3 184.45 269.6 L185.7 269.75 186.7 269.05 186.85 267.8 Q186.7 267.15 186.1 266.85 185.45 266.45 184.85 266.6 184.15 266.8 183.85 267.4 183.55 268 183.7 268.65 M194.7 279.3 L195 280 195 294 194.7 294.7 194 295 186 295 185.3 294.7 Q185 294.4 185 294 L185 292 Q185 291.6 185.3 291.3 185.6 291 186 291 L191 291 191 289 186 289 185.3 288.7 Q185 288.4 185 288 L185 286 Q185 285.6 185.3 285.3 185.6 285 186 285 L191 285 191 283 186 283 185.3 282.7 Q185 282.4 185 282 L185 280 Q185 279.6 185.3 279.3 185.6 279 186 279 L194 279 Q194.4 279 194.7 279.3 M219.05 270.8 L215.95 271.65 215.15 268.55 212 269.35 212.8 272.45 209.65 273.3 210.5 276.4 213.65 275.55 214.5 278.7 217.65 277.9 216.8 274.75 219.9 273.9 219.05 270.8 M234.45 269.6 L235.7 269.75 236.7 269.05 236.85 267.8 Q236.7 267.15 236.1 266.85 235.45 266.45 234.85 266.6 234.15 266.8 233.85 267.4 233.55 268 233.7 268.65 233.85 269.3 234.45 269.6 M236.75 259.95 Q237.35 260.25 237.5 260.9 L240.9 273.4 240.75 274.65 239.75 275.4 211.4 282.9 210.2 282.75 Q209.6 282.45 209.45 281.8 L206.05 269.35 Q205.9 268.65 206.2 268.05 206.55 267.5 207.2 267.3 L219.8 263.95 218.75 260.05 Q218.55 259.4 218.9 258.85 L219.15 258.45 219.1 258.25 219.9 258.05 221.15 258.25 Q221.7 258.6 221.9 259.25 L222.95 263.15 235.55 259.8 236.75 259.95 M228.2 270.1 Q228.35 270.75 228.95 271.1 L230.15 271.25 231.15 270.5 Q231.5 269.9 231.35 269.25 231.2 268.6 230.55 268.3 L229.3 268.1 Q228.65 268.25 228.35 268.9 228.05 269.45 228.2 270.1 M237.3 313.65 Q242 318.35 242 325 242 331.65 237.3 336.3 232.65 341 226 341 219.35 341 214.65 336.3 210 331.65 210 325 210 318.35 214.65 313.65 219.35 309 226 309 232.65 309 237.3 313.65 M173.6 319.1 L170.4 319.1 175 327.15 175 332.4 177.95 332.4 177.95 327.15 182.55 319.1 179.35 319.1 176.45 324.05 173.6 319.1 M222.25 319.1 L222.25 321.65 224.75 321.65 224.75 332.4 227.6 332.4 227.6 319.1 222.25 319.1 M176 309 Q182.65 309 187.3 313.65 192 318.35 192 325 192 331.65 187.3 336.3 182.65 341 176 341 169.35 341 164.65 336.3 160 331.65 160 325 160 318.35 164.65 313.65 169.35 309 176 309 M287.3 336.3 Q282.65 341 276 341 269.35 341 264.65 336.3 260 331.65 260 325 260 318.35 264.65 313.65 269.35 309 276 309 282.65 309 287.3 313.65 292 318.35 292 325 292 331.65 287.3 336.3 M278.45 319.9 Q277.15 318.8 275.45 318.8 273.75 318.8 272.6 319.55 271.5 320.3 270.55 321.75 L272.95 323.15 Q274.05 321.35 275.3 321.35 276 321.35 276.45 321.8 276.9 322.25 276.9 322.9 276.9 323.6 276.4 324.3 L274.7 326.2 270.8 330.2 270.8 332.4 280.15 332.4 280.15 329.75 274.9 329.75 277.3 327.25 279.25 324.85 Q279.75 323.9 279.75 322.9 279.75 321 278.45 319.9"/>
  </g>
</svg>