<svg xmlns="http://www.w3.org/2000/svg" xmlns:xlink="http://www.w3.org/1999/xlink">
  <defs/>
  <g>
    <path stroke="none" fill="#EC3300" d="M464 174.75 Q464.1 169.9 467.5 166.5 471 163 476 163 481 163 484.5 166.5 L486 168.3 Q488 171.2 488 175 488 178.8 486 181.7 L484.5 183.5 Q481 187 476 187 471 187 467.5 183.5 464.1 180.1 464 175.25 L464 174.75 M325.75 187 Q320.9 186.9 317.5 183.5 314 180 314 175 314 170 317.5 166.5 321 163 326 163 331 163 334.5 166.5 L336 168.3 Q338 171.2 338 175 338 178.8 336 181.7 L334.5 183.5 Q331.1 186.9 326.25 187 L325.75 187 M375.75 187 Q370.9 186.9 367.5 183.5 364 180 364 175 364 170 367.5 166.5 371 163 376 163 381 163 384.5 166.5 L386 168.3 Q388 171.2 388 175 388 178.8 386 181.7 L384.5 183.5 Q381.1 186.9 376.25 187 L375.75 187 M414 174.75 Q414.1 169.9 417.5 166.5 421 163 426 163 431 163 434.5 166.5 L436 168.3 Q438 171.2 438 175 438 178.8 436 181.7 L434.5 183.5 Q431 187 426 187 421 187 417.5 183.5 414.1 180.1 414 175.25 L414 174.75 M487.85 227 Q487.45 229.6 486 231.7 L484.5 233.5 Q481 237 476 237 471 237 467.5 233.5 464 230 464 225 464 220 467.5 216.5 471 213 476 213 481 213 484.5 216.5 L486 218.3 Q487.45 220.4 487.85 223 L488 225 487.85 227 M437.85 227 Q437.45 229.6 436 231.7 L434.5 233.5 Q431 237 426 237 421 237 417.5 233.5 414 230 414 225 414 220 417.5 216.5 421 213 426 213 431 213 434.5 216.5 L436 218.3 Q437.45 220.4 437.85 223 L438 225 437.85 227 M424 263.15 L426 263 428 263.15 Q431.7 263.7 434.5 266.5 L436 268.3 Q438 271.2 438 275 438 278.8 436 281.7 L434.5 283.5 Q431 287 426 287 421 287 417.5 283.5 414 280 414 275 414 270 417.5 266.5 420.3 263.7 424 263.15 M478 263.15 Q481.7 263.7 484.5 266.5 L486 268.3 Q488 271.2 488 275 488 278.8 486 281.7 L484.5 283.5 Q481 287 476 287 471 287 467.5 283.5 464 280 464 275 464 270 467.5 266.5 470.3 263.7 474 263.15 L476 263 478 263.15 M374 213.15 L376 213 378 213.15 Q381.7 213.7 384.5 216.5 L386 218.3 Q388 221.2 388 225 388 228.8 386 231.7 L384.5 233.5 Q381 237 376 237 371 237 367.5 233.5 364 230 364 225 364 220 367.5 216.5 370.3 213.7 374 213.15 M324 213.15 L326 213 328 213.15 Q331.7 213.7 334.5 216.5 L336 218.3 Q338 221.2 338 225 338 228.8 336 231.7 L334.5 233.5 Q331 237 326 237 321 237 317.5 233.5 314 230 314 225 314 220 317.5 216.5 320.3 213.7 324 213.15 M324 286.85 Q320.3 286.3 317.5 283.5 314 280 314 275 314 270 317.5 266.5 321 263 326 263 331 263 334.5 266.5 L336 268.3 Q338 271.2 338 275 338 278.8 336 281.7 L334.5 283.5 Q331.7 286.3 328 286.85 L326 287 324 286.85 M374 286.85 Q370.3 286.3 367.5 283.5 364 280 364 275 364 270 367.5 266.5 371 263 376 263 381 263 384.5 266.5 L386 268.3 Q388 271.2 388 275 388 278.8 386 281.7 L384.5 283.5 Q381.7 286.3 378 286.85 L376 287 374 286.85 M387.85 327 Q387.45 329.6 386 331.7 L384.5 333.5 Q381 337 376 337 371 337 367.5 333.5 364 330 364 325 364 320 367.5 316.5 371 313 376 313 381 313 384.5 316.5 L386 318.3 Q387.45 320.4 387.85 323 L388 325 387.85 327 M314.15 323 Q314.7 319.3 317.5 316.5 321 313 326 313 331 313 334.5 316.5 L336 318.3 Q338 321.2 338 325 338 328.8 336 331.7 L334.5 333.5 Q331 337 326 337 321 337 317.5 333.5 314.7 330.7 314.15 327 L314 325 Q314 323.95 314.15 323 M464.15 323 Q464.7 319.3 467.5 316.5 471 313 476 313 481 313 484.5 316.5 L486 318.3 Q488 321.2 488 325 488 328.8 486 331.7 L484.5 333.5 Q481 337 476 337 471 337 467.5 333.5 464.7 330.7 464.15 327 L464 325 Q464 323.95 464.15 323 M437.85 327 Q437.45 329.6 436 331.7 L434.5 333.5 Q431 337 426 337 421 337 417.5 333.5 414 330 414 325 414 320 417.5 316.5 421 313 426 313 431 313 434.5 316.5 L436 318.3 Q437.45 320.4 437.85 323 L438 325 437.85 327 M276 163 Q281 163 284.5 166.5 L286 168.3 Q288 171.2 288 175 288 178.8 286 181.7 L284.5 183.5 Q281 187 276 187 271 187 267.5 183.5 264 180 264 175 264 170 267.5 166.5 271 163 276 163"/>
    <path stroke="none" fill="#FFFFFF" d="M736.75 21.6 Q740.55 22.2 743.4 25 747 28.55 747 33.6 L746.7 36.3 746.4 36.8 745.8 37 Q725 42.55 707.9 37 L707.45 36.9 707.1 36.6 Q706 34.9 706 32.75 706 29.75 708.15 27.65 709.65 26.2 711.55 25.7 711.95 21.15 715.35 17.8 719.2 14 724.7 14 730.15 14 734.05 17.8 735.8 19.55 736.75 21.6 M744.1 68.4 Q747.3 74.35 744.6 78.85 742.15 83.4 735.3 83.6 L735.35 83.65 Q732.5 83.75 729.55 82.95 L725.1 90.65 Q724.25 92.1 722.65 92.55 L722.55 92.55 Q720.95 92.85 719.6 92.1 L714.4 89.1 Q713 88.25 712.55 86.8 L712.5 86.6 Q712.15 85.05 712.95 83.65 L717.4 75.95 Q715.25 73.8 713.9 71.25 710.75 65.3 713.45 60.85 715.95 56.25 722.7 56.05 728.75 55.8 735 59.45 741.3 63.05 744.1 68.4 M695.8 37 Q689.2 38.75 683 39.4 L683 31 686 31 686.7 30.75 687 30 687 29 680 22 673 29 673 30 Q673 30.45 673.3 30.75 L674 31 677 31 677 39.8 Q666.95 39.95 657.9 37 L657.45 36.9 657.1 36.6 Q656 34.9 656 32.75 656 29.75 658.15 27.65 659.65 26.2 661.55 25.7 661.95 21.15 665.35 17.8 669.2 14 674.7 14 680.15 14 684.05 17.8 685.8 19.55 686.75 21.6 690.55 22.2 693.4 25 697 28.55 697 33.6 L696.7 36.3 696.4 36.8 695.8 37 M688.15 71.25 Q686.8 73.85 684.65 75.95 L689.1 83.65 Q689.95 85.1 689.55 86.75 L689.45 86.85 Q688.95 88.35 687.6 89.1 L682.4 92.1 Q681 92.95 679.45 92.6 L679.3 92.5 Q677.75 92.05 676.95 90.65 L672.5 82.95 Q669.55 83.8 666.7 83.65 659.95 83.4 657.45 78.85 654.75 74.35 657.9 68.45 660.75 63.1 667 59.45 673.3 55.85 679.3 56.1 686.1 56.25 688.6 60.85 691.35 65.3 688.1 71.3 L688.15 71.25 M718.95 109.2 Q719.3 109.15 719.6 109.4 730.45 116.65 742.1 117.75 742.5 117.8 742.75 118.1 L743 118.75 743 119.35 742.8 120 Q733.05 132.1 719 130.9 718.6 130.85 718.35 130.6 718.05 130.3 718.05 129.9 L718.05 110.2 Q718.05 109.85 718.3 109.55 718.55 109.25 718.95 109.2 M716.05 109 L716.05 141.2 715.75 141.9 715.05 142.2 710.9 142.2 710.2 141.9 Q709.9 141.6 709.9 141.2 L709.9 109 Q709.9 108.6 710.2 108.3 710.5 108 710.9 108 L715.05 108 Q715.45 108 715.75 108.3 L716.05 109 M686.8 123.5 Q686.4 124.15 685.7 124.4 L681.4 126 685.95 134.15 686.2 135.15 685.85 136.1 685.1 136.8 678.5 139.8 677.15 139.9 Q676.4 139.65 676.05 139.1 L670.8 131 667.3 133.85 Q666.65 134.3 665.95 134.25 665.25 134.2 664.7 133.7 664.15 133.15 664.15 132.4 L664 110.9 Q664 110.15 664.5 109.65 664.95 109.15 665.6 109.05 666.35 108.9 666.95 109.3 L686.1 121 Q686.75 121.4 686.95 122.15 L686.8 123.5 M676 152.85 L682 157.85 676 162.85 676 159.85 Q669.9 159.85 665.6 164 L665.3 164.3 Q661.55 167.95 661 173 L664 173 664 177 656.8 177 656.85 175 Q656.85 168.75 660.3 164 661.2 162.65 662.45 161.45 664.55 159.35 667 158 L667.1 157.95 Q670.05 156.4 673.45 156 L676 155.85 676 152.85 M714 173 L714 177 711 177 Q711.55 182.05 715.3 185.75 719.7 190.15 726 190.15 L726 187.15 732 192.15 726 197.15 726 194.15 Q718 194.15 712.45 188.6 706.85 183 706.85 175 706.85 174.15 707.45 173.6 708 173 708.85 173 L714 173 M743.15 223 Q744 223 744.6 223.6 745.15 224.15 745.15 225 745.15 233 739.6 238.6 734 244.15 726 244.15 L726 247.15 720 242.15 726 237.15 726 240.15 Q732.3 240.15 736.75 235.75 740.45 232.05 741.05 227 L737.85 227 737.85 223 743.15 223 M695.2 227 L687.85 227 687.85 223 691.05 223 Q690.45 217.95 686.75 214.3 682.3 209.85 676 209.85 L676 212.85 670 207.85 676 202.85 676 205.85 Q684 205.85 689.6 211.45 695.15 217 695.15 225 L695.2 227 M724 260 Q718.95 260.55 715.3 264.3 710.85 268.7 710.85 275 710.85 281.3 715.3 285.75 719.7 290.15 726 290.15 L726 287.15 732 292.15 726 297.15 726 294.15 Q718 294.15 712.45 288.6 706.85 283 706.85 275 706.85 267 712.45 261.45 718 255.85 726 255.85 L728 255.8 728 263.15 724 263.15 724 260 M674 263.15 L674 255.8 676 255.85 Q684 255.85 689.6 261.45 695.15 267 695.15 275 695.15 283 689.6 288.6 L689.35 288.85 689.3 288.85 Q683.75 294.15 676 294.15 L676 297.15 670 292.15 676 287.15 676 290.15 Q682.1 290.15 686.5 286 L686.55 285.95 686.75 285.75 Q691.15 281.3 691.15 275 691.15 268.7 686.75 264.3 683.05 260.55 678 260 L678 263.15 674 263.15 M695.2 327 L687.85 327 687.85 323 691.05 323 Q690.45 317.95 686.75 314.3 682.3 309.85 676 309.85 669.7 309.85 665.3 314.3 660.85 318.7 660.85 325 L663.85 325 658.85 331 653.85 325 656.85 325 Q656.85 317 662.45 311.45 668 305.85 676 305.85 684 305.85 689.6 311.45 695.15 317 695.15 325 L695.2 327 M706.85 325 L706.8 323 714.15 323 714.15 327 711 327 711.15 327.95 Q711.9 332.4 715.3 335.75 719.7 340.15 726 340.15 732.3 340.15 736.75 335.75 740.1 332.4 740.9 327.95 L741.15 325 738.15 325 743.15 319 748.15 325 745.15 325 744.95 327.95 Q744.1 334.05 739.6 338.6 734 344.15 726 344.15 718 344.15 712.45 338.6 707.9 334.05 707.05 327.95 L706.85 325 M638.4 17.55 Q639 18.15 639 19 L639 21 625 35 611 21 611 19 Q611 18.15 611.55 17.55 612.15 17 613 17 L619 17 619 9 Q619 8.15 619.55 7.55 620.15 7 621 7 L628.95 7 Q629.8 7 630.4 7.55 631 8.15 631 9 L631 17 636.95 17 Q637.8 17 638.4 17.55 M609 43 L609 39.05 Q609 38.2 609.55 37.6 610.15 37 611 37 L639 37 Q639.8 37 640.4 37.6 641 38.2 641 39 L641 43 Q641 43.85 640.4 44.45 639.8 45 639 45 L611 45 Q610.15 45 609.55 44.45 609 43.85 609 43 M589 23 Q589 23.85 588.4 24.45 587.8 25 586.95 25 L581 25 581 33 Q581 33.85 580.4 34.45 579.8 35 578.95 35 L571 35 Q570.15 35 569.55 34.45 569 33.85 569 33 L569 25 563 25 Q562.15 25 561.55 24.45 561 23.85 561 23 L561 21 575 7 589 21 589 23 M590.4 44.45 Q589.8 45 589 45 L561 45 Q560.15 45 559.55 44.45 559 43.85 559 43 L559 39.05 Q559 38.2 559.55 37.6 560.15 37 561 37 L589 37 Q589.8 37 590.4 37.6 591 38.2 591 39 L591 43 Q591 43.85 590.4 44.45 M594 69.05 Q594.15 74.25 588.35 77.8 L588.4 77.8 Q585.95 79.35 583 80.15 L583 89 Q583 90.7 581.85 91.9 L581.75 91.95 Q580.55 93 579 93 L573 93 Q571.35 93 570.2 91.95 L570.1 91.8 Q569 90.65 569 89 L569 80.15 Q566.05 79.35 563.6 77.8 557.9 74.25 558 69.05 557.9 63.8 563.6 60.25 568.75 57.05 576 57.05 583.25 57.05 588.35 60.25 594.1 63.8 594 69.05 M578.75 71.8 L574.9 71.8 574.9 64.5 572.85 64.5 572.85 73.6 578.75 73.6 578.75 71.8 M644 69.05 Q644.15 74.25 638.35 77.8 L638.4 77.8 Q635.95 79.35 633 80.15 L633 89 Q633 90.7 631.85 91.9 L631.75 91.95 Q630.55 93 629 93 L623 93 Q621.35 93 620.2 91.95 L620.1 91.8 Q619 90.65 619 89 L619 80.15 Q616.05 79.35 613.6 77.8 607.9 74.25 608 69.05 607.9 63.8 613.6 60.25 618.75 57.05 626 57.05 633.25 57.05 638.35 60.25 644.1 63.8 644 69.05 M626.8 66.55 Q627.15 66.8 627.15 67.55 627.15 68.25 626.8 68.6 626.4 68.95 625.4 68.95 L623.9 68.95 623.9 66.25 625.4 66.25 Q626.4 66.25 626.8 66.55 M629.25 67.55 Q629.25 65.95 628.35 65.25 627.45 64.5 625.3 64.5 L621.85 64.5 621.85 73.6 623.9 73.6 623.9 70.7 625.3 70.7 627.3 73.6 629.8 73.6 627.5 70.35 Q629.25 69.7 629.25 67.55 M532.4 31.4 Q529.75 34 526 34 522.25 34 519.65 31.4 517 28.75 517 25 517 21.25 519.65 18.65 522.25 16 526 16 529.75 16 532.4 18.65 535 21.25 535 25 535 28.75 532.4 31.4 M537.3 36.3 Q532.65 41 526 41 519.35 41 514.65 36.3 510 31.65 510 25 510 18.35 514.65 13.65 519.35 9 526 9 532.65 9 537.3 13.65 542 18.35 542 25 542 31.65 537.3 36.3 M528 30 L528 20 524 20 524 30 528 30 M534.5 33.5 Q538 30 538 25 538 20 534.5 16.5 531 13 526 13 521 13 517.5 16.5 514 20 514 25 514 30 517.5 33.5 521 37 526 37 531 37 534.5 33.5 M492.35 19.3 Q492.95 19.8 493 20.65 493.05 21.4 492.55 22.05 L478.05 39.3 477.1 39.95 475.95 39.95 Q475.35 39.75 475 39.3 L460.5 22.05 Q459.95 21.4 460 20.65 460.05 19.9 460.6 19.35 L466.4 13.6 Q467 13 467.8 13 L484.75 13 Q485.55 13 486.1 13.55 L492.35 19.3 M526 57.05 Q533.25 57.05 538.35 60.25 544.1 63.8 544 69.05 544.15 74.25 538.35 77.8 L538.4 77.8 Q535.95 79.35 533 80.15 L533 89 Q533 90.7 531.85 91.9 L531.75 91.95 Q530.55 93 529 93 L523 93 Q521.35 93 520.2 91.95 L520.1 91.8 Q519 90.65 519 89 L519 80.15 Q516.05 79.35 513.6 77.8 507.9 74.25 508 69.05 507.9 63.8 513.6 60.25 518.75 57.05 526 57.05 M487.3 86.3 Q482.65 91 476 91 469.35 91 464.65 86.3 460 81.65 460 75 460 68.35 464.65 63.65 469.35 59 476 59 482.65 59 487.3 63.65 492 68.35 492 75 492 81.65 487.3 86.3 M529.05 120.8 Q530.4 122.15 531.5 124.6 533.95 130.1 534 137.85 L534 137.95 Q534 140 531.5 141.5 529.05 143 525.5 143 521.95 143 519.45 141.5 517 140 517 137.95 L517 137.85 Q517.05 130.1 519.45 124.6 520.6 122.15 521.95 120.75 L520.95 119.95 Q519.05 118.05 519.05 115.4 519.05 112.75 520.95 110.9 522.8 109 525.5 109 528.2 109 530.1 110.9 532 112.75 532 115.4 532 118.05 530.1 119.95 L529.05 120.8 M562.7 131.8 Q564.05 130.35 566.05 130.35 568 130.35 569.5 131.75 L569.5 131.8 Q570.9 133.25 570.9 135.2 L570.85 136.05 Q570.55 137.55 569.5 138.65 568.05 140 566.05 140 564.05 140 562.7 138.65 561.5 137.45 561.3 135.95 L561.25 135.2 Q561.25 133.2 562.7 131.75 L562.7 131.8 M561.4 130.55 Q559.5 132.5 559.5 135.2 L559.55 136.15 556 136.05 556 123.9 564.5 123 569.1 112 581 112 585.4 122.4 595 123.9 594.35 136.75 591.25 136.7 591.35 135.2 Q591.35 132.5 589.45 130.55 587.55 128.65 584.8 128.65 582.1 128.65 580.2 130.55 578.25 132.5 578.25 135.2 L578.4 136.5 572.55 136.35 572.6 135.2 Q572.6 132.5 570.7 130.55 568.75 128.65 566.05 128.65 563.35 128.65 561.4 130.55 M495 113 L495 126.05 Q495 126.85 494.4 127.45 493.8 128 493 128 L459 128 Q458.15 128 457.55 127.45 457 126.85 457 126.05 L457 113.05 Q457 112.2 457.55 111.6 458.15 111 459 111 L493 111 Q493.8 111 494.4 111.6 495 112.2 495 113 M494.4 130.45 Q495 129.85 495 129.3 L495 142 Q495 142.85 494.4 143.45 493.8 144 493 144 L459 144 Q458.15 144 457.55 143.45 457 142.85 457 142 L457 129.3 Q457 129.85 457.55 130.45 458.15 131 459 131 L493 131 Q493.8 131 494.4 130.45 M464 175.25 L464 177 461 177 Q461.55 182.05 465.3 185.75 469.7 190.15 476 190.15 L476 187.15 482 192.15 476 197.15 476 194.15 Q468 194.15 462.45 188.6 456.85 183 456.85 175 456.85 174.15 457.45 173.6 458 173 458.85 173 L464 173 464 174.75 464 175.25 M565.3 185.75 Q567.4 187.85 569.95 189 571.85 189.8 574 190.05 L574 187 578 187 578 194.2 576 194.15 Q572.8 194.15 569.95 193.25 565.75 191.9 562.45 188.6 556.85 183 556.85 175 L553.85 175 558.85 169 563.85 175 560.85 175 Q560.85 181.3 565.3 185.75 M635.7 115 L642.5 126.8 Q643.75 129 641.85 132.05 639.9 135.25 635.85 137.6 631.8 139.9 628.2 140 624.5 140.2 623.3 138.05 L622.35 136.5 614.4 134.25 Q612.65 133.9 611.75 132.35 611 131.1 611.25 129.65 L611.35 129.25 611.45 129.1 Q611.75 128 612.65 127.15 L613.3 126.6 Q614.8 125.8 616.5 126.25 L610.5 115.75 Q609.85 114.6 610.05 113.4 L610.15 112.8 Q610.55 111.3 611.85 110.6 L611.9 110.5 Q613.25 109.8 614.75 110.1 616.25 110.5 617.05 111.9 L620.2 117.5 620.25 117.5 Q621.45 116.4 623.15 115.45 627.2 113.15 630.9 112.95 634.45 112.9 635.7 115 M581.45 131.8 Q582.85 130.35 584.8 130.35 586.8 130.35 588.25 131.8 L588.25 131.75 Q589.6 133.2 589.6 135.2 L589.55 136.35 Q589.25 137.6 588.25 138.65 586.8 140 584.8 140 582.85 140 581.45 138.65 580.4 137.55 580.1 136.2 L580.1 136.15 580 135.2 Q580 133.25 581.45 131.8 M624 187 L628 187 628 190.05 Q633.05 189.45 636.75 185.75 641.15 181.3 641.15 175 L638.15 175 643.15 169 648.15 175 645.15 175 Q645.15 183 639.6 188.6 634 194.15 626 194.15 625.15 194.15 624.6 193.6 624 193 624 192.15 L624 187 M438.5 14.95 Q438.55 15.9 438.15 16.6 L442.4 20.9 Q443.65 22.15 442.4 23.4 L441.45 24.35 441 24.6 440.6 24.4 439.95 23.75 437.7 26.1 438.35 26.7 438.5 27.1 438.3 27.55 437.4 28.5 Q436.1 29.8 434.85 28.5 L430.6 24.2 426.55 28.4 Q427.8 30.45 428.25 32.8 L428.15 32.85 Q428.95 37.15 426.2 39.7 423.6 42.55 419.3 41.85 415.9 41.25 413.1 38.65 L412.7 38.25 Q409.75 35.35 409.15 31.7 L409.15 31.65 Q408.9 30.25 409.1 29.1 409.25 26.4 411.15 24.6 413 22.7 415.6 22.45 L418.05 22.55 418.2 22.55 Q420.4 22.95 422.35 24.2 L433.75 12.65 Q434.4 11.9 435.65 12.05 436.75 12.2 437.55 13.05 L438 13.45 Q438.5 14.1 438.5 14.95 M420.6 30.35 L420.45 30.25 Q418.9 28.85 417.2 28.45 416.1 28.25 415.35 28.85 414.8 29.55 415 30.6 415.35 32.45 416.85 34.05 L417.25 34.45 Q418.6 35.65 420.25 35.95 L420.4 36 Q421.4 36.1 422 35.55 422.5 34.9 422.4 33.95 L422.4 33.75 Q422.05 32.15 420.95 30.75 L420.6 30.35 M437.3 63.65 Q442 68.35 442 75 442 81.65 437.3 86.3 432.65 91 426 91 419.35 91 414.65 86.3 410 81.65 410 75 410 68.35 414.65 63.65 419.35 59 426 59 432.65 59 437.3 63.65 M479.65 70.15 Q478.3 69.1 475.2 69.1 L470.2 69.1 470.2 82.4 473.15 82.4 473.15 78.15 475.2 78.15 478.15 82.4 481.8 82.4 478.45 77.65 Q480.95 76.7 480.95 73.55 480.95 71.2 479.65 70.15 M475.35 71.65 Q476.8 71.65 477.35 72.05 477.95 72.45 477.95 73.55 477.95 74.6 477.4 75.1 476.85 75.6 475.3 75.6 L473.15 75.6 473.15 71.65 475.35 71.65 M424.65 69.1 L421.7 69.1 421.7 82.4 430.3 82.4 430.3 79.75 424.65 79.75 424.65 69.1 M385 24 Q385 24.85 384.4 25.45 383.8 26 383 26 L380.6 26 380.35 26.25 Q382.85 27.3 384.9 29.25 389 33.2 389 38.85 389 41.85 384.9 43.9 380.85 46 375 46 369.2 46 365.1 43.9 361.05 41.85 361 38.85 361 33.2 365.1 29.25 367.15 27.3 369.65 26.25 L369.4 26 367 26 Q366.15 26 365.55 25.45 365 24.85 365 24 L365 8.05 Q365 7.2 365.55 6.6 366.15 6 367 6 L383 6 Q383.8 6 384.4 6.6 385 7.2 385 8 L385 24 M369 22 L381 22 381 10 369 10 369 22 M337.65 10.95 L334.55 16.1 333.65 16.8 Q333.05 16.95 332.45 16.5 330.55 15.2 328.3 14.75 L328.25 14.75 323.15 15.05 324.25 16.6 Q324.85 17.4 324.35 18.3 L324.3 18.4 Q323.75 19 323 19 L322.9 19 312.3 17.65 312.2 17.65 Q311.45 17.5 311.15 16.85 L311.25 16.95 Q310.8 16.4 311.05 15.75 L311.05 15.65 314.85 5.05 Q314.95 4.15 316.15 4 L316.25 4 Q317.1 4 317.55 4.75 L317.6 4.9 318.55 7.05 Q323.9 4.65 329.9 5.8 333.9 6.5 337.2 8.85 337.95 9.2 338 9.8 338.1 10.3 337.65 10.95 M334.45 31.95 Q334.9 31.3 334.65 30.45 334.45 29.7 333.7 29.25 L332.2 29.05 Q331.4 29.25 330.95 29.95 330.6 30.7 330.8 31.45 331.05 32.3 331.7 32.65 L333.25 32.9 Q334.05 32.7 334.45 31.95 M341.2 30.1 Q341.65 29.45 341.4 28.6 341.2 27.85 340.45 27.4 L338.95 27.25 Q338.15 27.45 337.7 28.15 337.35 28.9 337.55 29.65 337.8 30.5 338.45 30.85 L340 31.1 Q340.8 30.9 341.2 30.1 M341.3 18.95 Q342.05 19.35 342.25 20.15 L346.4 35.6 Q346.6 36.4 346.15 37.15 345.75 37.85 344.95 38.05 L310.2 47.4 308.65 47.2 Q307.95 46.75 307.75 45.95 L303.6 30.55 Q303.4 29.7 303.8 29 304.25 28.25 305.05 28.05 L339.8 18.7 Q340.6 18.5 341.3 18.95 M362 56 L388 56 Q388.8 56 389.4 56.6 390 57.2 390 58 L390 80 389.8 80.95 389.4 81.45 Q388.8 82 388 82 L362 82 Q361.15 82 360.55 81.45 L360.2 80.95 360 80 360 58.05 Q360 57.2 360.55 56.6 361.15 56 362 56 M337.65 60.95 L334.55 66.1 333.65 66.8 Q333.05 66.95 332.45 66.5 330.55 65.2 328.3 64.75 L328.25 64.75 323.15 65.05 324.25 66.6 Q324.85 67.4 324.35 68.3 L324.3 68.4 Q323.75 69 323 69 L322.9 69 312.3 67.65 312.2 67.65 Q311.45 67.5 311.15 66.85 L311.25 66.95 Q310.8 66.4 311.05 65.75 L311.05 65.65 314.85 55.05 Q314.95 54.15 316.15 54 L316.25 54 Q317.1 54 317.55 54.75 L317.6 54.9 318.55 57.05 Q323.9 54.65 329.9 55.8 333.9 56.5 337.2 58.85 337.95 59.2 338 59.8 338.1 60.3 337.65 60.95 M341.3 68.95 Q342.05 69.35 342.25 70.15 L346.4 85.6 Q346.6 86.4 346.15 87.15 345.75 87.85 344.95 88.05 L310.2 97.4 308.65 97.2 Q307.95 96.75 307.75 95.95 L303.6 80.55 Q303.4 79.7 303.8 79 304.25 78.25 305.05 78.05 L339.8 68.7 Q340.6 68.5 341.3 68.95 M362 84 L388 84 Q388.8 84 389.4 84.6 390 85.2 390 86 L390 94 Q390 94.85 389.4 95.45 388.8 96 388 96 L362 96 Q361.15 96 360.55 95.45 360 94.85 360 94 L360 86.05 Q360 85.2 360.55 84.6 361.15 84 362 84 M381 88 L381 92 385 92 385 88 381 88 M342 84.7 L338.9 73.1 308 81.45 311.1 93 342 84.7 M364 60 L364 76 386 76 386 60 364 60 M396.6 130.2 L396.7 130.05 Q397.05 129.55 397 129 L399 141.65 Q399.15 142.6 398.55 143.3 397.95 143.9 397 144 L355 144 Q354 143.9 353.4 143.3 352.85 142.6 353 141.65 L355 129.25 Q354.95 129.7 355.4 130.2 355.9 130.65 357 131 L395 131 396.6 130.2 M394.35 111 L396.85 128 355.25 128 357.75 111 394.35 111 M342 141.65 Q342.15 142.6 341.55 143.3 340.95 143.9 340 144 L310 144 Q309 143.9 308.4 143.3 307.85 142.6 308 141.65 L310 129.25 Q309.95 129.7 310.4 130.2 310.9 130.65 312 131 L338 131 339.6 130.2 339.7 130.05 Q340.05 129.55 340 129 L342 141.65 M337.35 111 L339.85 128 310.25 128 312.75 111 337.35 111 M326.25 187 L328 187 328 194.2 326 194.15 Q322.8 194.15 319.95 193.25 315.75 191.9 312.45 188.6 306.85 183 306.85 175 L303.85 175 308.85 169 313.85 175 310.85 175 Q310.85 181.3 315.3 185.75 317.4 187.85 319.95 189 321.85 189.8 324 190.05 L324 187 325.75 187 326.25 187 M376.25 187 L378 187 378 190.05 Q383.05 189.45 386.75 185.75 391.15 181.3 391.15 175 L388.15 175 393.15 169 398.15 175 395.15 175 Q395.15 183 389.6 188.6 384 194.15 376 194.15 375.15 194.15 374.6 193.6 374 193 374 192.15 L374 187 375.75 187 376.25 187 M439.4 111.6 Q440 112.2 440 113 L440 126.05 Q440 126.85 439.4 127.45 438.8 128 438 128 L412 128 Q411.15 128 410.55 127.45 410 126.85 410 126.05 L410 113.05 Q410 112.2 410.55 111.6 411.15 111 412 111 L438 111 Q438.8 111 439.4 111.6 M412 144 Q411.15 144 410.55 143.45 410 142.85 410 142 L410 129.15 Q410 129.85 410.55 130.45 411.15 131 412 131 L438 131 Q438.8 131 439.4 130.45 440 129.85 440 129.15 L440 142 Q440 142.85 439.4 143.45 438.8 144 438 144 L412 144 M414 175.25 L414 177 406.8 177 406.85 175 Q406.85 168.75 410.3 164 411.2 162.65 412.45 161.45 414.6 159.3 417.1 157.95 420.05 156.4 423.45 156 L426 155.85 426 152.85 432 157.85 426 162.85 426 159.85 Q419.9 159.85 415.6 164 L415.3 164.3 Q411.55 167.95 411 173 L414 173 414 174.75 414 175.25 M487.85 223 L493.15 223 Q494 223 494.6 223.6 495.15 224.15 495.15 225 495.15 233 489.6 238.6 484 244.15 476 244.15 L476 247.15 470 242.15 476 237.15 476 240.15 Q482.3 240.15 486.75 235.75 490.45 232.05 491.05 227 L487.85 227 488 225 487.85 223 M437.85 223 L441.05 223 Q440.45 217.95 436.75 214.3 432.3 209.85 426 209.85 L426 212.85 420 207.85 426 202.85 426 205.85 Q434 205.85 439.6 211.45 445.15 217 445.15 225 L445.2 227 437.85 227 438 225 437.85 223 M424 263.15 L424 255.8 426 255.85 Q434 255.85 439.6 261.45 445.15 267 445.15 275 445.15 283 439.6 288.6 L439.35 288.85 439.3 288.85 Q433.75 294.15 426 294.15 L426 297.15 420 292.15 426 287.15 426 290.15 Q432.1 290.15 436.5 286 L436.55 285.95 436.75 285.75 Q441.15 281.3 441.15 275 441.15 268.7 436.75 264.3 433.05 260.55 428 260 L428 263.15 426 263 424 263.15 M474 263.15 L474 260 Q468.95 260.55 465.3 264.3 460.85 268.7 460.85 275 460.85 281.3 465.3 285.75 469.7 290.15 476 290.15 L476 287.15 482 292.15 476 297.15 476 294.15 Q468 294.15 462.45 288.6 456.85 283 456.85 275 456.85 267 462.45 261.45 468 255.85 476 255.85 L478 255.8 478 263.15 476 263 474 263.15 M374 213.15 L374 207.95 Q374 207.1 374.6 206.55 375.15 205.95 376 205.95 384 205.95 389.6 211.55 395.15 217.1 395.15 225.1 L398.15 225.1 393.15 231.1 388.15 225.1 391.15 225.1 Q391.15 218.8 386.75 214.4 383.05 210.65 378 210.1 L378 213.15 376 213 374 213.15 M324 213.15 L324 210.1 Q321.85 210.35 319.95 211.15 317.4 212.25 315.3 214.4 310.85 218.8 310.85 225.1 L313.85 225.1 308.85 231.1 303.85 225.1 306.85 225.1 Q306.85 217.1 312.45 211.55 315.75 208.2 319.95 206.85 322.8 205.95 326 205.95 L328 205.9 328 213.15 326 213 324 213.15 M328 286.85 L328 290.05 Q333.05 289.45 336.75 285.75 341.15 281.3 341.15 275 341.15 268.7 336.75 264.3 L336.5 264.05 336.55 264.05 Q332.15 259.85 326 259.85 L326 262.85 320 257.85 326 252.85 326 255.85 Q333.75 255.85 339.3 261.15 L339.3 261.2 339.35 261.2 339.6 261.45 Q345.15 267 345.15 275 345.15 283 339.6 288.6 334 294.15 326 294.15 L324 294.2 324 286.85 326 287 328 286.85 M378 286.85 L378 294.2 376 294.15 Q368 294.15 362.45 288.6 356.85 283 356.85 275 356.85 267 362.45 261.45 368 255.85 376 255.85 L376 252.85 382 257.85 376 262.85 376 259.85 Q369.7 259.85 365.3 264.3 360.85 268.7 360.85 275 360.85 281.3 365.3 285.75 368.95 289.45 374 290.05 L374 286.85 376 287 378 286.85 M387.85 323 L395.2 323 395.15 325 394.95 327.95 Q394.1 334.05 389.6 338.6 384 344.15 376 344.15 368 344.15 362.45 338.6 357.9 334.05 357.05 327.95 L356.85 325 353.85 325 358.85 319 363.85 325 360.85 325 Q360.85 326.55 361.1 327.95 361.95 332.4 365.3 335.75 369.7 340.15 376 340.15 382.3 340.15 386.75 335.75 390.1 332.4 390.9 327.95 L391.05 327 387.85 327 388 325 387.85 323 M314.15 327 L306.8 327 306.85 325 Q306.85 317 312.45 311.45 315.75 308.1 319.95 306.75 322.8 305.85 326 305.85 334 305.85 339.6 311.45 345.15 317 345.15 325 L348.15 325 343.15 331 338.15 325 341.15 325 Q341.15 318.7 336.75 314.3 332.3 309.85 326 309.85 322.7 309.85 319.95 311.05 317.4 312.15 315.3 314.3 311.55 317.95 311 323 L314.15 323 Q314 323.95 314 325 L314.15 327 M464.15 327 L461 327 461.15 327.95 Q461.9 332.4 465.3 335.75 469.7 340.15 476 340.15 482.3 340.15 486.75 335.75 490.1 332.4 490.9 327.95 L491.15 325 488.15 325 493.15 319 498.15 325 495.15 325 494.95 327.95 Q494.1 334.05 489.6 338.6 484 344.15 476 344.15 468 344.15 462.45 338.6 457.9 334.05 457.05 327.95 L456.85 325 456.8 323 464.15 323 Q464 323.95 464 325 L464.15 327 M437.85 323 L441.05 323 Q440.45 317.95 436.75 314.3 432.3 309.85 426 309.85 419.7 309.85 415.3 314.3 410.85 318.7 410.85 325 L413.85 325 408.85 331 403.85 325 406.85 325 Q406.85 317 412.45 311.45 418 305.85 426 305.85 434 305.85 439.6 311.45 445.15 317 445.15 325 L445.2 327 437.85 327 438 325 437.85 323 M589.35 261.2 L589.6 261.45 Q595.15 267 595.15 275 595.15 283 589.6 288.6 584 294.15 576 294.15 L574 294.2 574 286.85 578 286.85 578 290.05 Q583.05 289.45 586.75 285.75 591.15 281.3 591.15 275 591.15 268.7 586.75 264.3 L586.5 264.05 586.55 264.05 Q582.15 259.85 576 259.85 L576 262.85 570 257.85 576 252.85 576 255.85 Q583.75 255.85 589.3 261.15 L589.3 261.2 589.35 261.2 M569.95 206.85 Q572.8 205.95 576 205.95 L578 205.9 578 213.25 574 213.25 574 210.1 Q571.85 210.35 569.95 211.15 567.4 212.25 565.3 214.4 560.85 218.8 560.85 225.1 L563.85 225.1 558.85 231.1 553.85 225.1 556.85 225.1 Q556.85 217.1 562.45 211.55 565.75 208.2 569.95 206.85 M628 210.1 L628 213.25 624 213.25 624 207.95 Q624 207.1 624.6 206.55 625.15 205.95 626 205.95 634 205.95 639.6 211.55 645.15 217.1 645.15 225.1 L648.15 225.1 643.15 231.1 638.15 225.1 641.15 225.1 Q641.15 218.8 636.75 214.4 633.05 210.65 628 210.1 M626 255.85 L626 252.85 632 257.85 626 262.85 626 259.85 Q619.7 259.85 615.3 264.3 610.85 268.7 610.85 275 610.85 281.3 615.3 285.75 618.95 289.45 624 290.05 L624 286.85 628 286.85 628 294.2 626 294.15 Q618 294.15 612.45 288.6 606.85 283 606.85 275 606.85 267 612.45 261.45 618 255.85 626 255.85 M561 323 L564.15 323 564.15 327 556.8 327 556.85 325 Q556.85 317 562.45 311.45 565.75 308.1 569.95 306.75 572.8 305.85 576 305.85 584 305.85 589.6 311.45 595.15 317 595.15 325 L598.15 325 593.15 331 588.15 325 591.15 325 Q591.15 318.7 586.75 314.3 582.3 309.85 576 309.85 572.7 309.85 569.95 311.05 567.4 312.15 565.3 314.3 561.55 317.95 561 323 M615.3 335.75 Q619.7 340.15 626 340.15 632.3 340.15 636.75 335.75 640.1 332.4 640.9 327.95 L641.05 327 637.85 327 637.85 323 645.2 323 645.15 325 644.95 327.95 Q644.1 334.05 639.6 338.6 634 344.15 626 344.15 618 344.15 612.45 338.6 607.9 334.05 607.05 327.95 L606.85 325 603.85 325 608.85 319 613.85 325 610.85 325 Q610.85 326.55 611.1 327.95 611.95 332.4 615.3 335.75 M235 27 Q235 26.2 234.4 25.6 233.8 25 233 25 232.15 25 231.55 25.6 231 26.2 231 27 231 27.85 231.55 28.4 232.15 29 233 29 233.8 29 234.4 28.4 235 27.85 235 27 M242 27 Q242 26.2 241.4 25.6 240.8 25 240 25 239.15 25 238.55 25.6 238 26.2 238 27 238 27.85 238.55 28.4 239.15 29 240 29 240.8 29 241.4 28.4 242 27.85 242 27 M216 21 L212 21 212 24.95 208 24.95 208 28.95 212 28.95 212 32.95 216 32.95 216 28.95 219.95 28.95 219.95 24.95 216 24.95 216 21 M261.1 73.1 L258 84.7 288.95 92.95 292 81.35 261.1 73.1 M258.65 68.95 Q259.45 68.5 260.25 68.7 L295 78 Q295.75 78.25 296.2 78.95 296.6 79.65 296.4 80.45 L292.25 95.95 Q292 96.75 291.3 97.15 L289.8 97.3 255 88.05 Q254.2 87.85 253.75 87.1 253.4 86.35 253.6 85.55 L257.75 70.15 Q257.95 69.35 258.65 68.95 M243 67 Q243.8 67 244.4 67.6 245 68.2 245 69 L245 85 Q245 85.85 244.4 86.45 243.8 87 243 87 L207 87 Q206.15 87 205.55 86.45 205 85.85 205 85 L205 69.05 Q205 68.2 205.55 67.6 206.15 67 207 67 L243 67 M282.3 54.9 L282.35 54.75 Q282.8 54 283.65 54 L283.75 54 Q284.95 54.15 285.05 55.05 L288.85 65.65 288.85 65.75 Q289.1 66.4 288.65 66.95 L288.75 66.85 287.7 67.65 287.6 67.65 277 69 276.9 69 Q276.15 69 275.6 68.4 L275.55 68.3 Q275.05 67.4 275.65 66.6 L276.75 65.05 271.65 64.75 271.6 64.75 Q269.35 65.2 267.45 66.5 266.85 66.95 266.25 66.8 265.65 66.6 265.35 66.1 L262.25 60.95 Q261.8 60.3 261.9 59.8 261.95 59.2 262.7 58.85 266 56.5 270 55.8 276 54.65 281.35 57.05 L282.3 54.9 M263 27.7 L259.15 26.6 258.05 30.45 261.9 31.55 260.95 35.4 264.75 36.4 265.8 32.55 269.6 33.6 270.65 29.75 266.85 28.75 267.9 24.85 264 23.85 263 27.7 M243 17 Q243.8 17 244.4 17.6 245 18.2 245 19 L245 35 Q245 35.85 244.4 36.45 243.8 37 243 37 L207 37 Q206.15 37 205.55 36.45 205 35.85 205 35 L205 19.05 Q205 18.2 205.55 17.6 206.15 17 207 17 L243 17 M315.8 33.4 L314.75 29.55 310.9 30.6 311.95 34.45 308.05 35.45 309.05 39.3 312.95 38.3 314 42.15 317.85 41.1 316.8 37.25 320.6 36.25 319.6 32.4 315.8 33.4 M288.45 35.15 Q287.75 35.6 287.6 36.35 287.35 37.2 287.75 37.85 288.15 38.6 288.95 38.85 L290.5 38.6 Q291.25 38.2 291.4 37.4 291.65 36.65 291.2 35.85 290.8 35.2 290 34.95 L288.45 35.15 M283.75 36.8 Q284.45 36.45 284.65 35.6 284.85 34.85 284.45 34.1 284.05 33.4 283.25 33.15 L281.7 33.3 Q281 33.8 280.85 34.55 280.6 35.4 281 36.05 281.4 36.8 282.2 37 L283.75 36.8 M295 28 Q295.75 28.25 296.2 28.95 296.6 29.65 296.4 30.45 L292.25 45.95 Q292 46.75 291.3 47.15 L289.8 47.3 255 38.05 Q254.2 37.85 253.75 37.1 253.4 36.35 253.6 35.55 L257.75 20.15 Q257.95 19.35 258.65 18.95 259.45 18.5 260.25 18.7 L295 28 M283.75 4 Q284.95 4.15 285.05 5.05 L288.85 15.65 288.85 15.75 Q289.1 16.4 288.65 16.95 L288.75 16.85 287.7 17.65 287.6 17.65 277 19 276.9 19 Q276.15 19 275.6 18.4 L275.55 18.3 Q275.05 17.4 275.65 16.6 L276.75 15.05 271.65 14.75 271.6 14.75 Q269.35 15.2 267.45 16.5 266.85 16.95 266.25 16.8 265.65 16.6 265.35 16.1 L262.25 10.95 Q261.8 10.3 261.9 9.8 261.95 9.2 262.7 8.85 266 6.5 270 5.8 276 4.65 281.35 7.05 L282.3 4.9 282.35 4.75 Q282.8 4 283.65 4 L283.75 4 M189.05 11 L189.05 29.85 189 29.85 Q189 35.65 184.9 39.7 180.85 43.8 175.05 43.8 L175 43.8 Q169.2 43.8 165.1 39.7 161.05 35.65 161.05 29.85 L161.05 11.05 Q161.05 10.2 161.6 9.6 162.2 9 163.05 9 L187.05 9 Q187.85 9 188.45 9.6 189.05 10.2 189.05 11 M186.05 12 L175.25 12 Q177.7 12.05 179.4 14 L179.3 13.85 Q181 15.65 181 18.15 L181 21.85 186.05 21.85 186.05 12 M169 18.15 Q169.05 15.7 170.65 13.95 172.35 12.05 174.75 12 L164.05 12 164.05 21.85 169 21.85 169 18.15 M172.15 17.25 L172 18.15 172 25.6 Q172 26.95 172.85 27.9 173.75 28.9 175 28.9 176.25 28.9 177.1 27.9 178 26.95 178 25.6 L178 18.15 177.9 17.25 Q177.65 16.5 177.1 15.9 176.25 14.95 175 14.95 173.75 14.95 172.85 15.9 172.3 16.5 172.15 17.25 M176.15 57.5 Q176.75 56.9 177.6 56.9 178.45 56.9 179.05 57.45 L194.6 73 Q195.2 73.6 195.15 74.45 195.15 75.25 194.55 75.85 L181.85 88.55 Q181.25 89.15 180.4 89.2 179.65 89.15 179.05 88.55 L163.5 73.05 Q162.9 72.45 162.85 71.65 162.85 70.8 163.45 70.2 L176.15 57.5 M162 94.05 Q160.3 94.05 159.15 91.25 158 88.5 158 84.55 158 80.6 159.15 77.8 160.3 75.05 162 75.05 163.65 75.05 164.8 77.8 166 80.6 166 84.55 166 88.5 164.8 91.25 163.65 94.05 162 94.05 M215 122.5 L214.85 122.15 214.5 122 214 122 210 126 214 130 214.5 130 214.85 129.85 215 129.5 215 122.5 M232.4 108.55 Q233 109.15 233 110 L233 118 241 118 Q241.85 118 242.45 118.55 243 119.15 243 120 L243 132 Q243 132.8 242.45 133.4 241.85 134 241 134 L233 134 233 142 Q233 142.8 232.4 143.4 231.8 144 231 144 L219 144 Q218.15 144 217.55 143.4 217 142.8 217 141.95 L217 134 209 134 Q208.2 134 207.6 133.4 207 132.8 207 132 L207 120 Q207 119.15 207.6 118.55 208.2 118 209.05 118 L217 118 217 110 Q217 109.15 217.55 108.55 218.15 108 219 108 L231 108 Q231.8 108 232.4 108.55 M209 83 L241 83 241 71 209 71 209 83 M183 118 L191 118 Q191.85 118 192.45 118.6 193 119.2 193 120 L193 132 Q193 132.85 192.45 133.45 191.85 134 191 134 L183 134 183 141.95 Q183 142.8 182.45 143.4 181.85 144 181 144 L169 144 Q168.2 144 167.6 143.4 167 142.8 167 142 L167 134 159.05 134 Q158.2 134 157.6 133.45 157 132.85 157 132 L157 120 Q157 119.2 157.6 118.6 158.2 118 159 118 L167 118 167 110 Q167 109.15 167.6 108.55 168.2 108 169 108 L181 108 Q181.85 108 182.45 108.55 183 109.15 183 110 L183 118 M171 136.5 L171 137 175 141 179 137 179 136.5 178.85 136.15 178.5 136 171.5 136 Q171.3 136 171.15 136.15 171 136.3 171 136.5 M162.45 161.45 Q167.1 156.75 173.45 156 L176 155.85 176 152.85 182 157.85 176 162.85 176 159.85 Q169.7 159.85 165.3 164.3 161.55 167.95 161 173 L164 173 164 174.75 Q164.1 169.9 167.5 166.5 171 163 176 163 181 163 184.5 166.5 188 170 188 175 188 180 184.5 183.5 181 187 176 187 171 187 167.5 183.5 164.1 180.1 164 175.25 L164 177 156.8 177 156.85 175 Q156.85 167 162.45 161.45 M234.5 166.5 Q238 170 238 175 238 180 234.5 183.5 231 187 226 187 221 187 217.5 183.5 214.1 180.1 214 175.25 L214 177 211 177 Q211.55 182.05 215.3 185.75 219.7 190.15 226 190.15 L226 187.15 232 192.15 226 197.15 226 194.15 Q218 194.15 212.45 188.6 206.85 183 206.85 175 206.85 174.15 207.45 173.6 208 173 208.85 173 L214 173 214 174.75 Q214.1 169.9 217.5 166.5 221 163 226 163 231 163 234.5 166.5 M285.5 122 Q285.3 122 285.15 122.15 L285 122.5 285 129.5 285.15 129.85 285.5 130 286 130 290 126 286 122 285.5 122 M293 120 L293 132 Q293 132.8 292.4 133.4 291.8 134 291 134 L283 134 283 142 Q283 142.85 282.4 143.45 281.8 144 281 144 L269 144 Q268.15 144 267.55 143.45 267 142.85 267 142 L267 134 259 134 Q258.15 134 257.55 133.4 257 132.8 257 132 L257 120 Q257 119.15 257.55 118.55 258.15 118 259 118 L267 118 267 110.05 Q267 109.2 267.55 108.6 268.15 108 269 108 L281 108 Q281.8 108 282.4 108.6 283 109.2 283 110 L283 118 290.95 118 Q291.8 118 292.4 118.55 293 119.15 293 120 M271 115.5 L271.15 115.85 271.5 116 278.5 116 278.85 115.85 279 115.5 279 115 275 111 271 115 271 115.5 M264.5 122 L264 122 260 126 264 130 264.5 130 264.85 129.85 265 129.5 265 122.5 264.85 122.15 Q264.7 122 264.5 122 M271 137 L275 141 279 137 279 136.5 278.85 136.15 278.5 136 271.5 136 Q271.3 136 271.15 136.15 271 136.3 271 136.5 L271 137 M122.15 17.25 L122 18.15 122 25.6 Q122 26.95 122.85 27.9 123.75 28.9 125 28.9 126.25 28.9 127.1 27.9 128 26.95 128 25.6 L128 18.15 127.9 17.25 127.1 15.9 Q126.25 14.95 125 14.95 123.75 14.95 122.85 15.9 122.3 16.5 122.15 17.25 M139.05 11 L139.05 29.85 139 29.85 Q139 35.65 134.9 39.7 130.85 43.8 125.05 43.8 L125 43.8 Q119.2 43.8 115.1 39.7 111.05 35.65 111.05 29.85 L111.05 11.05 Q111.05 10.2 111.6 9.6 112.2 9 113.05 9 L137.05 9 Q137.85 9 138.45 9.6 139.05 10.2 139.05 11 M114.05 21.85 L119 21.85 119 18.15 Q119.05 15.7 120.65 13.95 122.35 12.05 124.75 12 L114.05 12 114.05 21.85 M86.05 12 L64.05 12 64.05 21.85 69 21.85 69 25.6 Q69.05 28.1 70.65 29.9 72.45 31.95 75 31.9 77.6 31.95 79.4 29.85 L79.3 30 Q81 28.15 81 25.6 L81 21.85 86.05 21.85 86.05 12 M89.05 11 L89.05 29.85 89 29.85 Q89 35.65 84.9 39.7 80.85 43.8 75.05 43.8 L75 43.8 Q69.2 43.8 65.1 39.7 61.05 35.65 61.05 29.85 L61.05 11.05 Q61.05 10.2 61.6 9.6 62.2 9 63.05 9 L87.05 9 Q87.85 9 88.45 9.6 89.05 10.2 89.05 11 M90.4 58 L94.05 61.4 Q76.75 89.7 66.9 86.7 L66.9 86.8 Q66.9 88.3 65.85 89.35 L65.75 89.45 Q63.5 91.65 61.1 92.55 L57.6 92.45 Q56.5 91.4 57.45 89 58.35 86.6 60.6 84.4 L60.7 84.3 Q61.75 83.25 63.25 83.25 L64.2 83.35 Q62.9 72.95 90.4 58 M108.95 81.85 Q108.35 81.25 108.3 80.4 108.3 79.6 108.9 79 L128.95 58.95 Q129.5 58.4 130.35 58.35 131.2 58.4 131.75 58.95 L143.05 70.3 Q143.65 70.9 143.7 71.7 143.65 72.55 143.1 73.1 L123.05 93.15 Q122.45 93.75 121.65 93.75 120.8 93.75 120.2 93.15 L108.95 81.85 M72 18.15 Q72 16.8 72.85 15.85 73.75 14.9 75 14.9 76.25 14.9 77.1 15.85 78 16.8 78 18.15 L78 25.6 Q78 26.95 77.1 27.9 76.25 28.9 75 28.9 73.75 28.9 72.85 27.9 72 26.95 72 25.6 L72 18.15 M38.45 9.6 Q39.05 10.2 39.05 11 L39.05 29.85 39 29.85 Q39 35.65 34.9 39.7 30.85 43.8 25.05 43.8 L25 43.8 Q19.2 43.8 15.1 39.7 11.05 35.65 11.05 29.85 L11.05 11.05 Q11.05 10.2 11.6 9.6 12.2 9 13.05 9 L37.05 9 Q37.85 9 38.45 9.6 M25 14.95 Q23.75 14.95 22.85 15.9 22.3 16.5 22.15 17.25 L22 18.15 22 25.6 Q22 26.95 22.85 27.9 23.75 28.9 25 28.9 26.25 28.9 27.1 27.9 28 26.95 28 25.6 L28 18.15 27.9 17.25 27.1 15.9 Q26.25 14.95 25 14.95 M29.3 13.85 Q31 15.65 31 18.15 L31 21.85 36.05 21.85 36.05 12 25.25 12 Q27.7 12.05 29.4 14 L29.3 13.85 M9.9 93 L8 91.1 9.9 81.35 33.25 58 43 67.7 19.65 91.1 9.9 93 M69 108 L81 108 Q81.8 108 82.4 108.6 83 109.2 83 110 L83 118 90.95 118 Q91.8 118 92.4 118.55 93 119.15 93 120 L93 132 Q93 132.8 92.4 133.4 91.8 134 91 134 L83 134 83 142 Q83 142.85 82.4 143.45 81.8 144 81 144 L69 144 Q68.15 144 67.55 143.45 67 142.85 67 142 L67 134 59 134 Q58.15 134 57.55 133.4 57 132.8 57 132 L57 120 Q57 119.15 57.55 118.55 58.15 118 59 118 L67 118 67 110.05 Q67 109.2 67.55 108.6 68.15 108 69 108 M78.5 116 L78.85 115.85 79 115.5 79 115 75 111 71 115 71 115.5 71.15 115.85 71.5 116 78.5 116 M42.4 118.55 Q43 119.15 43 120 L43 132 Q43 132.8 42.4 133.4 41.8 134 41 134 L33 134 33 142 Q33 142.85 32.4 143.45 31.8 144 31 144 L19 144 Q18.15 144 17.55 143.45 17 142.85 17 142 L17 134 9 134 Q8.15 134 7.55 133.4 7 132.8 7 132 L7 120 Q7 119.15 7.55 118.55 8.15 118 9 118 L17 118 17 110.05 Q17 109.2 17.55 108.6 18.15 108 19 108 L31 108 Q31.8 108 32.4 108.6 33 109.2 33 110 L33 118 40.95 118 Q41.8 118 42.4 118.55 M36 168.3 Q38 171.2 38 175 38 178.8 36 181.7 L34.5 183.5 Q31 187 26 187 21 187 17.5 183.5 14 180 14 175 14 170 17.5 166.5 21 163 26 163 31 163 34.5 166.5 L36 168.3 M76 163 Q81 163 84.5 166.5 88 170 88 175 88 180 84.5 183.5 81.1 186.9 76.25 187 L78 187 78 194.2 76 194.15 Q68 194.15 62.45 188.6 56.85 183 56.85 175 L53.85 175 58.85 169 63.85 175 60.85 175 Q60.85 181.3 65.3 185.75 68.95 189.45 74 190.05 L74 187 75.75 187 Q70.9 186.9 67.5 183.5 64 180 64 175 64 170 67.5 166.5 71 163 76 163 M143 120 L143 132 Q143 132.8 142.4 133.4 141.8 134 141 134 L133 134 133 141.95 Q133 142.8 132.45 143.4 131.85 144 131 144 L119 144 Q118.2 144 117.6 143.4 117 142.8 117 142 L117 134 109 134 Q108.15 134 107.55 133.4 107 132.8 107 132 L107 120 Q107 119.15 107.55 118.55 108.15 118 109 118 L117 118 117 110 Q117 109.15 117.6 108.55 118.2 108 119 108 L131 108 Q131.85 108 132.45 108.55 133 109.15 133 110 L133 118 140.95 118 Q141.8 118 142.4 118.55 143 119.15 143 120 M135.15 122.15 L135 122.5 135 129.5 135.15 129.85 135.5 130 136 130 140 126 136 122 135.5 122 135.15 122.15 M114 175 Q114 170 117.5 166.5 121 163 126 163 131 163 134.5 166.5 138 170 138 175 138 180 134.5 183.5 131.1 186.9 126.25 187 L128 187 128 190.05 Q133.05 189.45 136.75 185.75 141.15 181.3 141.15 175 L138.15 175 143.15 169 148.15 175 145.15 175 Q145.15 183 139.6 188.6 134 194.15 126 194.15 125.15 194.15 124.6 193.6 124 193 124 192.15 L124 187 125.75 187 Q120.9 186.9 117.5 183.5 114 180 114 175 M86.5 264.05 L86.55 264.05 Q82.15 259.85 76 259.85 L76 262.85 70 257.85 76 252.85 76 255.85 Q83.75 255.85 89.3 261.15 L89.3 261.2 89.35 261.2 89.6 261.45 Q95.15 267 95.15 275 95.15 283 89.6 288.6 84 294.15 76 294.15 L74 294.2 74 286.85 Q70.3 286.3 67.5 283.5 64 280 64 275 64 270 67.5 266.5 71 263 76 263 81 263 84.5 266.5 88 270 88 275 88 280 84.5 283.5 81.7 286.3 78 286.85 L78 290.05 Q83.05 289.45 86.75 285.75 91.15 281.3 91.15 275 91.15 268.7 86.75 264.3 L86.5 264.05 M88 225.1 Q88 230.1 84.5 233.6 81 237.1 76 237.1 71 237.1 67.5 233.6 64 230.1 64 225.1 64 220.1 67.5 216.6 70.3 213.8 74 213.25 L74 210.1 Q68.95 210.65 65.3 214.4 60.85 218.8 60.85 225.1 L63.85 225.1 58.85 231.1 53.85 225.1 56.85 225.1 Q56.85 217.1 62.45 211.55 68 205.95 76 205.95 L78 205.9 78 213.25 Q81.7 213.8 84.5 216.6 88 220.1 88 225.1 M136.75 214.4 Q133.05 210.65 128 210.1 L128 213.25 Q131.7 213.8 134.5 216.6 138 220.1 138 225.1 138 230.1 134.5 233.6 131 237.1 126 237.1 121 237.1 117.5 233.6 114 230.1 114 225.1 114 220.1 117.5 216.6 120.3 213.8 124 213.25 L124 207.95 Q124 207.1 124.6 206.55 125.15 205.95 126 205.95 134 205.95 139.6 211.55 145.15 217.1 145.15 225.1 L148.15 225.1 143.15 231.1 138.15 225.1 141.15 225.1 Q141.15 218.8 136.75 214.4 M115.3 285.75 Q118.95 289.45 124 290.05 L124 286.85 Q120.3 286.3 117.5 283.5 114 280 114 275 114 270 117.5 266.5 121 263 126 263 131 263 134.5 266.5 138 270 138 275 138 280 134.5 283.5 131.7 286.3 128 286.85 L128 294.2 126 294.15 Q118 294.15 112.45 288.6 106.85 283 106.85 275 106.85 267 112.45 261.45 118 255.85 126 255.85 L126 252.85 132 257.85 126 262.85 126 259.85 Q119.7 259.85 115.3 264.3 110.85 268.7 110.85 275 110.85 281.3 115.3 285.75 M26.95 216.35 L24.3 219 19.05 213.65 21.7 211 26.95 216.35 M33.75 214.7 L39 220.05 39.05 225.45 36.4 228.1 39 230.75 31.1 238.8 25.9 238.8 23.8 240.95 19.95 237.05 32.55 224.2 29.55 221.15 24.3 226.5 21.7 223.8 29.6 215.8 33.75 214.7 M32.85 267.35 L29.75 268.15 23.85 274.15 25.8 276.2 29.7 272.15 31.95 274.45 22.5 284.1 25.4 287 27 285.4 30.9 285.4 36.8 279.35 34.85 277.4 36.85 275.4 36.8 271.35 32.85 267.35 M18.55 235.6 L8.05 224.9 10.65 222.25 21.15 232.95 18.55 235.6 M15.4 217.4 L18 214.75 23.25 220.1 20.65 222.75 15.4 217.4 M11.7 221.15 L14.35 218.5 24.85 229.2 22.2 231.85 11.7 221.15 M21.05 267.35 L19.1 269.35 23.05 273.35 25 271.4 21.05 267.35 M23.85 264.55 L21.85 266.55 25.8 270.55 27.75 268.55 23.85 264.55 M16.35 272.15 L24.2 280.2 26.2 278.2 18.3 270.2 16.35 272.15 M5.05 276 Q5.05 267.3 11.15 261.1 17.3 255 26.05 255 34.75 255 40.85 261.1 47.05 267.3 47.05 276 47.05 284.75 40.85 290.85 34.75 297 26.05 297 17.3 297 11.15 290.85 5.05 284.75 5.05 276 M13.6 275 L21.45 283 23.4 281 15.55 273 13.6 275 M62.45 311.45 Q68 305.85 76 305.85 84 305.85 89.6 311.45 95.15 317 95.15 325 L98.15 325 93.15 331 88.15 325 91.15 325 Q91.15 318.7 86.75 314.3 82.3 309.85 76 309.85 69.7 309.85 65.3 314.3 61.55 317.95 61 323 L64.15 323 Q64.7 319.3 67.5 316.5 71 313 76 313 81 313 84.5 316.5 88 320 88 325 88 330 84.5 333.5 81 337 76 337 71 337 67.5 333.5 64.7 330.7 64.15 327 L56.8 327 56.85 325 Q56.85 317 62.45 311.45 M23 313 L27 313 Q27.8 313 28.4 313.6 29 314.2 29 315 L29 322 36 322 Q36.8 322 37.4 322.6 38 323.2 38 324 L38 328 Q38 328.85 37.4 329.45 36.8 330 36 330 L29 330 29 337 Q29 337.85 28.4 338.45 27.8 339 27 339 L23 339 Q22.15 339 21.55 338.45 21 337.85 21 337 L21 330 14 330 Q13.15 330 12.55 329.45 12 328.85 12 328 L12 324.05 Q12 323.2 12.55 322.6 13.15 322 14 322 L21 322 21 315.05 Q21 314.2 21.55 313.6 22.15 313 23 313 M134.5 316.5 Q137.3 319.3 137.85 323 L145.2 323 145.15 325 Q145.15 333 139.6 338.6 134 344.15 126 344.15 118 344.15 112.45 338.6 106.85 333 106.85 325 L103.85 325 108.85 319 113.85 325 110.85 325 Q110.85 331.3 115.3 335.75 119.7 340.15 126 340.15 132.3 340.15 136.75 335.75 140.45 332.05 141.05 327 L137.85 327 Q137.3 330.7 134.5 333.5 131 337 126 337 121 337 117.5 333.5 114 330 114 325 114 320 117.5 316.5 121 313 126 313 131 313 134.5 316.5 M156.85 325 Q156.85 317 162.45 311.45 168 305.85 176 305.85 184 305.85 189.6 311.45 195.15 317 195.15 325 L195.2 327 187.85 327 Q187.3 330.7 184.5 333.5 181 337 176 337 171 337 167.5 333.5 164 330 164 325 164 320 167.5 316.5 171 313 176 313 181 313 184.5 316.5 187.3 319.3 187.85 323 L191.05 323 Q190.45 317.95 186.75 314.3 182.3 309.85 176 309.85 169.7 309.85 165.3 314.3 160.85 318.7 160.85 325 L163.85 325 158.85 331 153.85 325 156.85 325 M243.15 223 Q244 223 244.6 223.6 245.15 224.15 245.15 225 245.15 233 239.6 238.6 234 244.15 226 244.15 L226 247.15 220 242.15 226 237.15 226 240.15 Q232.3 240.15 236.75 235.75 240.45 232.05 241.05 227 L237.85 227 Q237.3 230.7 234.5 233.5 231 237 226 237 221 237 217.5 233.5 214 230 214 225 214 220 217.5 216.5 221 213 226 213 231 213 234.5 216.5 237.3 219.3 237.85 223 L243.15 223 M170 207.85 L176 202.85 176 205.85 Q184 205.85 189.6 211.45 195.15 217 195.15 225 L195.2 227 187.85 227 Q187.3 230.7 184.5 233.5 181 237 176 237 171 237 167.5 233.5 164 230 164 225 164 220 167.5 216.5 171 213 176 213 181 213 184.5 216.5 187.3 219.3 187.85 223 L191.05 223 Q190.45 217.95 186.75 214.3 182.3 209.85 176 209.85 L176 212.85 170 207.85 M226 313 Q231 313 234.5 316.5 238 320 238 325 238 330 234.5 333.5 231 337 226 337 221 337 217.5 333.5 214.7 330.7 214.15 327 L211 327 Q211.55 332.05 215.3 335.75 219.7 340.15 226 340.15 232.3 340.15 236.75 335.75 241.15 331.3 241.15 325 L238.15 325 243.15 319 248.15 325 245.15 325 Q245.15 333 239.6 338.6 234 344.15 226 344.15 218 344.15 212.45 338.6 206.85 333 206.85 325 L206.8 323 214.15 323 Q214.7 319.3 217.5 316.5 221 313 226 313 M228 263.15 Q231.7 263.7 234.5 266.5 238 270 238 275 238 280 234.5 283.5 231 287 226 287 221 287 217.5 283.5 214 280 214 275 214 270 217.5 266.5 220.3 263.7 224 263.15 L224 260 Q218.95 260.55 215.3 264.3 210.85 268.7 210.85 275 210.85 281.3 215.3 285.75 219.7 290.15 226 290.15 L226 287.15 232 292.15 226 297.15 226 294.15 Q218 294.15 212.45 288.6 206.85 283 206.85 275 206.85 267 212.45 261.45 218 255.85 226 255.85 L228 255.8 228 263.15 M174 255.8 L176 255.85 Q184 255.85 189.6 261.45 195.15 267 195.15 275 195.15 283 189.6 288.6 L189.35 288.85 189.3 288.85 Q183.75 294.15 176 294.15 L176 297.15 170 292.15 176 287.15 176 290.15 Q182.1 290.15 186.5 286 L186.55 285.95 186.75 285.75 Q191.15 281.3 191.15 275 191.15 268.7 186.75 264.3 183.05 260.55 178 260 L178 263.15 Q181.7 263.7 184.5 266.5 188 270 188 275 188 280 184.5 283.5 181 287 176 287 171 287 167.5 283.5 164 280 164 275 164 270 167.5 266.5 170.3 263.7 174 263.15 L174 255.8"/>
  </g>
</svg>